<svg width="24" height="24" viewBox="0 0 24 24" stroke="red" flood-color="red" xmlns="http://www.w3.org/2000/svg">
<path d="M13.418 13.2028C11.6455 14.9753 10.1792 16.4013 9.0191 17.4808C7.85896 18.5604 6.92439 19.358 6.21542 19.8736C5.5145 20.3812 4.95859 20.6632 4.54771 20.7196C4.14488 20.7679 3.8065 20.6551 3.53258 20.3812C3.23449 20.0831 3.12169 19.6964 3.1942 19.2211C3.27477 18.7377 3.57689 18.1133 4.10057 17.3479C4.62424 16.5825 5.40976 15.6278 6.45711 14.4838C7.51252 13.3317 8.862 11.9339 10.5055 10.2904C12.5519 8.24399 14.1955 6.67296 15.4362 5.57726C16.6849 4.48962 17.6598 3.81287 18.3607 3.54701C19.0616 3.28114 19.6216 3.35768 20.0405 3.77662C20.4433 4.17945 20.5078 4.71924 20.2339 5.39599C19.968 6.06468 19.2832 7.01536 18.1794 8.24801C17.0837 9.47261 15.4966 11.1242 13.418 13.2028Z"/>
<path d="M11.0047 14.2095C9.3425 12.5473 8.00645 11.171 6.99654 10.0805C5.98664 8.99 5.24292 8.10932 4.76539 7.43844C4.29542 6.77511 4.0395 6.24527 3.99764 5.84892C3.96334 5.46013 4.08315 5.12877 4.35707 4.85484C4.65516 4.55675 5.03336 4.43544 5.49165 4.49091C5.9575 4.55393 6.55307 4.82723 7.27834 5.31081C8.00362 5.79439 8.90419 6.52577 9.98006 7.50496C11.0635 8.4917 12.3758 9.75571 13.9171 11.297C15.8362 13.2161 17.3072 14.7596 18.3302 15.9276C19.3452 17.1037 19.9706 18.0272 20.2064 18.698C20.4421 19.3689 20.3506 19.9138 19.9316 20.3327C19.5288 20.7356 19.0038 20.8148 18.3566 20.5704C17.717 20.3336 16.8172 19.6997 15.6572 18.6686C14.5048 17.6451 12.9539 16.1587 11.0047 14.2095Z"/>
</svg>
