<svg width="24" height="24" viewBox="0 0 24 24" fill="none" xmlns="http://www.w3.org/2000/svg">
<g clip-path="url(#clip0_77_13705)">
<mask id="mask0_77_13705" style="mask-type:luminance" maskUnits="userSpaceOnUse" x="0" y="0" width="24" height="24">
<path d="M24 12C24 5.37258 18.6274 0 12 0C5.37258 0 0 5.37258 0 12C0 18.6274 5.37258 24 12 24C18.6274 24 24 18.6274 24 12Z" fill="white"/>
</mask>
<g mask="url(#mask0_77_13705)">
<mask id="mask1_77_13705" style="mask-type:luminance" maskUnits="userSpaceOnUse" x="0" y="0" width="24" height="24">
<path d="M24 0H0V24H24V0Z" fill="white"/>
</mask>
<g mask="url(#mask1_77_13705)">
<path d="M11.998 23.7936C18.5126 23.7936 23.7937 18.5125 23.7937 11.9979C23.7937 5.48328 18.5126 0.202148 11.998 0.202148C5.4834 0.202148 0.202271 5.48328 0.202271 11.9979C0.202271 18.5125 5.4834 23.7936 11.998 23.7936Z" fill="white"/>
<path fill-rule="evenodd" clip-rule="evenodd" d="M11.998 0.404517C5.59509 0.404517 0.404517 5.59509 0.404517 11.998C0.404517 18.4009 5.59509 23.5914 11.998 23.5914C18.4009 23.5914 23.5914 18.4009 23.5914 11.998C23.5914 5.59509 18.4009 0.404517 11.998 0.404517ZM0 11.998C0 5.37168 5.37169 0 11.998 0C18.6243 0 23.996 5.37168 23.996 11.998C23.996 18.6243 18.6243 23.996 11.998 23.996C5.37169 23.996 0 18.6243 0 11.998Z" fill="#231F20"/>
<path d="M11.998 22.2039C17.6345 22.2039 22.2039 17.6345 22.2039 11.998C22.2039 6.36134 17.6345 1.79199 11.998 1.79199C6.36134 1.79199 1.79199 6.36134 1.79199 11.998C1.79199 17.6345 6.36134 22.2039 11.998 22.2039Z" fill="#009F55"/>
<path fill-rule="evenodd" clip-rule="evenodd" d="M11.998 2.19673C6.58474 2.19673 2.19649 6.58497 2.19649 11.9982C2.19649 17.4114 6.58474 21.7996 11.998 21.7996C17.4111 21.7996 21.7994 17.4114 21.7994 11.9982C21.7994 6.58497 17.4111 2.19673 11.998 2.19673ZM1.38745 11.9982C1.38745 6.13816 6.13792 1.3877 11.998 1.3877C17.8579 1.3877 22.6084 6.13816 22.6084 11.9982C22.6084 17.8582 17.8579 22.6087 11.998 22.6087C6.13792 22.6087 1.38745 17.8582 1.38745 11.9982Z" fill="#231F20"/>
<path d="M16.4159 16.5916C16.3062 16.6683 16.1555 16.7204 15.9636 16.7478C15.7826 16.7752 15.6511 16.7697 15.5688 16.7313C15.5469 16.7204 15.525 16.682 15.5031 16.6162C15.4866 16.545 15.4647 16.4956 15.4373 16.4682C15.4263 16.4572 15.4126 16.449 15.3962 16.4435C15.1769 16.3229 14.9411 16.2188 14.689 16.1311C14.0968 15.9117 13.4855 15.7774 12.8551 15.7281C12.5316 14.9551 12.3562 14.5329 12.3288 14.4617C12.1369 13.9737 12.0766 13.6941 12.1479 13.6229L18.332 7.43875C18.3703 7.40035 18.4882 7.4086 18.6856 7.4634C18.8884 7.52373 19.0173 7.58678 19.0721 7.65254C19.1324 7.72384 19.2201 7.89924 19.3353 8.17885C19.4559 8.45298 19.5792 8.65309 19.7053 8.77918C19.8698 8.94367 20.1576 9.08345 20.5688 9.19857C20.9525 9.29725 21.1636 9.38771 21.202 9.46993C21.2897 9.64539 21.3391 9.98528 21.35 10.4897C21.3719 10.9941 21.3418 11.3093 21.2596 11.4354C21.2212 11.4957 21.0841 11.5286 20.8484 11.5341C20.6181 11.545 20.4673 11.5149 20.3961 11.4436C20.3358 11.3833 20.3001 11.3312 20.2892 11.2874C20.2782 11.2435 20.2645 11.2188 20.2481 11.2134C20.0068 11.0598 19.7711 10.9283 19.5408 10.8186C18.9981 10.55 18.5403 10.4102 18.1675 10.3992L16.8271 11.7397C17.1176 11.8329 17.4685 11.9809 17.8797 12.1837C17.9784 12.2605 18.0386 12.5675 18.0606 13.1048C18.0935 13.642 18.0606 13.96 17.9619 14.0587C17.9016 14.119 17.7919 14.1519 17.633 14.1574C17.474 14.1629 17.3479 14.1409 17.2547 14.0916C17.1999 14.0368 17.0984 13.9463 16.9504 13.8202C16.7037 13.6502 16.161 13.4584 15.3221 13.2446L14.4587 14.108C14.7218 14.1738 15.059 14.2807 15.4702 14.4287C15.8923 14.5768 16.1363 14.6837 16.2021 14.7495C16.2788 14.8262 16.3501 15.1387 16.4159 15.687C16.4926 16.2352 16.4926 16.5367 16.4159 16.5916Z" fill="white"/>
<path fill-rule="evenodd" clip-rule="evenodd" d="M18.4386 7.61826L12.3213 13.7355C12.3222 13.7579 12.3264 13.7929 12.3374 13.8435C12.364 13.9672 12.4223 14.1471 12.517 14.3878L12.5173 14.3885L12.5175 14.3892C12.5423 14.4535 12.7003 14.8341 12.9944 15.5373C13.5993 15.5953 14.187 15.7297 14.7573 15.9408C15.0141 16.0302 15.2554 16.1364 15.4812 16.2596C15.5165 16.2741 15.5505 16.2955 15.5803 16.3253C15.6458 16.3909 15.6783 16.481 15.6973 16.5589C15.7409 16.5649 15.8156 16.5658 15.9333 16.5479L15.9341 16.5478L15.935 16.5477C16.0827 16.5266 16.1893 16.4911 16.2637 16.4488C16.2679 16.4229 16.2712 16.3826 16.2712 16.3244C16.2712 16.1878 16.2535 15.9862 16.2156 15.7151L16.2153 15.7131L16.215 15.7112C16.1825 15.4399 16.1492 15.2327 16.1159 15.0865C16.0992 15.0132 16.0835 14.9598 16.0695 14.9233C16.0628 14.9056 16.0578 14.8953 16.0551 14.8901C16.0496 14.8863 16.0389 14.8793 16.0208 14.8692C15.9898 14.8519 15.9463 14.8306 15.8886 14.8053C15.7733 14.7548 15.6122 14.6931 15.4033 14.6197L15.4025 14.6195L15.4017 14.6192C14.9935 14.4723 14.6635 14.3678 14.4096 14.3044L14.0631 14.2177L15.2605 13.0203L15.3721 13.0487C15.7948 13.1564 16.1465 13.2596 16.4257 13.3583C16.7015 13.4557 16.9193 13.5533 17.0652 13.6538L17.0737 13.6596L17.0816 13.6664C17.2104 13.7761 17.3083 13.8625 17.3718 13.9234C17.4239 13.9446 17.5049 13.9596 17.626 13.9554C17.6943 13.953 17.7432 13.9449 17.7763 13.935C17.8007 13.9277 17.8124 13.9206 17.8167 13.9175C17.8188 13.9139 17.8241 13.9036 17.8307 13.8828C17.8416 13.8482 17.852 13.797 17.8594 13.7255C17.8742 13.5824 17.8749 13.3812 17.8587 13.1173L17.8586 13.1152L17.8585 13.1131C17.8477 12.8486 17.8277 12.6494 17.8004 12.5106C17.7868 12.4412 17.7725 12.393 17.7596 12.362C17.757 12.3558 17.7547 12.3508 17.7528 12.3469C17.363 12.156 17.0343 12.0187 16.7653 11.9324L16.4497 11.8311L18.0862 10.1946L18.1734 10.1972C18.5876 10.2094 19.0753 10.3628 19.6291 10.6368C19.8637 10.7486 20.1026 10.8817 20.3457 11.0359C20.4024 11.0655 20.4332 11.1122 20.4475 11.1379C20.4656 11.1705 20.4768 11.2051 20.4844 11.2343C20.4852 11.236 20.4872 11.2396 20.491 11.2452C20.4997 11.258 20.5147 11.2762 20.5384 11.3001C20.5385 11.3 20.5532 11.3117 20.6023 11.3215C20.6556 11.3321 20.7328 11.3372 20.8387 11.3322L20.8412 11.332L20.8437 11.332C20.9554 11.3294 21.0323 11.3204 21.0808 11.3087C21.0889 11.3068 21.0954 11.3049 21.1006 11.3033C21.1138 11.2699 21.1312 11.2028 21.1425 11.0852C21.1563 10.9408 21.1587 10.7462 21.1479 10.4986L21.1478 10.4964L21.1478 10.4942C21.1424 10.2468 21.1277 10.0446 21.1046 9.88565C21.0829 9.7357 21.0552 9.63557 21.0277 9.57459C21.0271 9.57412 21.0264 9.57365 21.0257 9.57313C21.0097 9.56212 20.9812 9.54618 20.9352 9.52645C20.8436 9.48721 20.7063 9.44291 20.5184 9.39459L20.5163 9.39407L20.5142 9.39346C20.0933 9.27562 19.7642 9.12431 19.5623 8.92232C19.4104 8.77045 19.2749 8.54404 19.1501 8.26045L19.1491 8.25824L19.1482 8.25599C19.0916 8.1186 19.043 8.00981 19.0022 7.92815C18.9595 7.8427 18.9313 7.79938 18.9177 7.78331L18.9172 7.78274L18.9168 7.78223C18.9168 7.78223 18.9127 7.77763 18.9009 7.76943C18.8886 7.76081 18.8707 7.75002 18.8454 7.7377C18.7949 7.71299 18.724 7.68604 18.6297 7.65791C18.5398 7.63302 18.4777 7.6214 18.4386 7.61826ZM21.0353 9.58059C21.0353 9.58059 21.0349 9.58026 21.0343 9.57965C21.035 9.58026 21.0353 9.58059 21.0353 9.58059ZM21.1174 11.297L21.1173 11.297C21.1177 11.2968 21.1177 11.2968 21.1174 11.297ZM16.2573 16.476C16.2572 16.4759 16.2577 16.4744 16.2588 16.472C16.2579 16.4749 16.2573 16.4761 16.2573 16.476ZM12.3221 13.7119C12.3221 13.7119 12.3221 13.713 12.3216 13.7151C12.3218 13.7128 12.3221 13.7118 12.3221 13.7119ZM18.4632 7.21448C18.5421 7.21996 18.6359 7.23984 18.7397 7.26866L18.7415 7.26913L18.7432 7.26965C18.8508 7.30167 18.9452 7.33621 19.0232 7.37437C19.098 7.41093 19.173 7.45813 19.2269 7.52254C19.2734 7.57771 19.3192 7.65759 19.364 7.74726C19.4107 7.84054 19.4632 7.95848 19.5213 8.09971C19.6374 8.3631 19.7483 8.53626 19.8483 8.63629C19.9751 8.76304 20.221 8.8911 20.6212 9.00337C20.8161 9.05352 20.9756 9.10363 21.0946 9.15463C21.1541 9.18018 21.2095 9.2084 21.2559 9.24056C21.2984 9.26995 21.3519 9.31513 21.3839 9.38156C21.4415 9.49762 21.4793 9.65071 21.5049 9.82752C21.5311 10.0079 21.5466 10.2271 21.5522 10.4832C21.5632 10.739 21.5615 10.9535 21.5452 11.1238C21.5297 11.2851 21.499 11.4381 21.4295 11.5452C21.3649 11.6457 21.2513 11.6838 21.1752 11.7021C21.0871 11.7232 20.9785 11.7334 20.8555 11.7363C20.7322 11.7421 20.6198 11.7375 20.5229 11.7181C20.4276 11.6991 20.3281 11.6618 20.253 11.5867C20.1912 11.5249 20.128 11.4481 20.0993 11.3587C19.8783 11.22 19.6632 11.101 19.4539 11.0014L19.4525 11.0007L19.4511 11C18.9644 10.7591 18.5647 10.6332 18.2465 10.6064L17.196 11.6569C17.4276 11.7471 17.6855 11.8625 17.9692 12.0025L17.9876 12.0116L18.0038 12.0242C18.0688 12.0748 18.1079 12.1458 18.1334 12.2072C18.1602 12.2721 18.1809 12.3487 18.1974 12.4327C18.2303 12.6006 18.2514 12.8228 18.2626 13.0946C18.2792 13.367 18.2798 13.5927 18.2618 13.7671C18.2527 13.8546 18.2384 13.935 18.2165 14.0046C18.1952 14.0719 18.1619 14.1448 18.1049 14.2019C17.9878 14.3189 17.8107 14.3538 17.6399 14.3596C17.4622 14.3658 17.2964 14.3427 17.16 14.2705L17.1332 14.2562L17.1117 14.2347C17.0641 14.1872 16.971 14.1038 16.8276 13.9814C16.7255 13.9131 16.5509 13.8316 16.2909 13.7397C16.0512 13.6549 15.7492 13.5648 15.3835 13.4694L14.8464 14.0065C15.0495 14.0681 15.2801 14.1455 15.5379 14.2383C15.7507 14.3129 15.9224 14.3785 16.0509 14.4348C16.1152 14.463 16.1714 14.49 16.2178 14.5159C16.2609 14.5399 16.3084 14.5699 16.3451 14.6066C16.3955 14.657 16.4266 14.7242 16.4476 14.7795C16.4707 14.8402 16.4914 14.9136 16.5103 14.9966C16.5481 15.1625 16.5833 15.385 16.6164 15.661C16.6551 15.9372 16.6757 16.1599 16.6757 16.3244C16.6757 16.4061 16.6707 16.4822 16.6568 16.5469C16.6452 16.6007 16.6178 16.696 16.5334 16.7563L16.5327 16.7568L16.5319 16.7574C16.3874 16.8585 16.2029 16.918 15.993 16.948C15.806 16.9763 15.623 16.9799 15.4833 16.9147L15.4808 16.9136L15.4784 16.9124C15.4131 16.8797 15.3773 16.8245 15.3603 16.7948C15.3402 16.7595 15.3243 16.7196 15.3112 16.6803L15.3082 16.6712L15.306 16.6618C15.3015 16.6424 15.2971 16.6281 15.2934 16.618C15.0862 16.5044 14.8627 16.4057 14.6225 16.3222L14.6206 16.3215L14.6187 16.3208C14.0441 16.108 13.4512 15.9777 12.8393 15.9299L12.7162 15.9202L12.6685 15.8063C12.3472 15.0383 12.17 14.6122 12.1403 14.5351C12.0432 14.2882 11.9755 14.0845 11.9419 13.9288C11.9252 13.8515 11.9148 13.7765 11.9169 13.7092C11.9188 13.6489 11.9317 13.5531 12.0048 13.48L18.1889 7.29585C18.2376 7.24724 18.2956 7.22826 18.3373 7.2202C18.3802 7.21195 18.4238 7.21171 18.4632 7.21448Z" fill="#231F20"/>
<path d="M7.75557 16.6032C7.86568 16.6803 8.01709 16.7326 8.20974 16.7601C8.39138 16.7877 8.52352 16.7821 8.60607 16.7436C8.6281 16.7326 8.65013 16.694 8.67212 16.628C8.68866 16.5564 8.71069 16.5069 8.73821 16.4794C8.74923 16.4683 8.76296 16.4601 8.77946 16.4546C8.99968 16.3335 9.2364 16.2289 9.48962 16.1408C10.0841 15.9207 10.6979 15.7857 11.331 15.7362C11.6558 14.96 11.8319 14.5362 11.8594 14.4646C12.0521 13.9747 12.1126 13.694 12.0411 13.6224L5.83168 7.41298C5.79315 7.3744 5.67479 7.3827 5.4766 7.43773C5.27293 7.49829 5.14355 7.56158 5.08852 7.62767C5.02796 7.6992 4.93988 7.87536 4.82429 8.15609C4.70316 8.43134 4.57932 8.63229 4.45271 8.7589C4.28756 8.92404 3.99856 9.06439 3.5857 9.17998C3.20036 9.27908 2.98843 9.36992 2.94989 9.45251C2.86182 9.62862 2.81228 9.96992 2.80127 10.4764C2.77924 10.9828 2.80952 11.2993 2.8921 11.426C2.93063 11.4865 3.06825 11.5196 3.30496 11.525C3.53616 11.5361 3.68754 11.5058 3.7591 11.4342C3.81965 11.3737 3.85543 11.3214 3.86644 11.2773C3.87746 11.2333 3.89122 11.2085 3.90773 11.203C4.14994 11.0489 4.38665 10.9167 4.61785 10.8067C5.16282 10.5369 5.62248 10.3966 5.99682 10.3856L7.34274 11.7315C7.05099 11.825 6.69868 11.9737 6.2858 12.1774C6.18671 12.2544 6.12615 12.5627 6.10416 13.1022C6.07112 13.6416 6.10416 13.9609 6.20326 14.06C6.26377 14.1206 6.37388 14.1536 6.53354 14.1591C6.69315 14.1646 6.81976 14.1426 6.91337 14.093C6.9684 14.038 7.07026 13.9472 7.21885 13.8206C7.46659 13.6499 8.01155 13.4572 8.8538 13.2425L9.7208 14.1095C9.45657 14.1756 9.11804 14.2829 8.70516 14.4316C8.28132 14.5802 8.03635 14.6876 7.97026 14.7536C7.8932 14.8307 7.82166 15.1445 7.75557 15.695C7.67851 16.2454 7.67851 16.5482 7.75557 16.6032Z" fill="white"/>
<path fill-rule="evenodd" clip-rule="evenodd" d="M5.82625 7.19339C5.86806 7.20145 5.92642 7.22053 5.97522 7.26932L12.1847 13.4788C12.2581 13.5521 12.271 13.6484 12.2729 13.7089C12.275 13.7765 12.2645 13.8518 12.2478 13.9294C12.2141 14.0858 12.1461 14.2903 12.0486 14.5383C12.0188 14.6157 11.8409 15.0436 11.5183 15.8146L11.4704 15.929L11.3468 15.9387C10.7324 15.9868 10.137 16.1176 9.56008 16.3312L9.5582 16.3319L9.55628 16.3326C9.31515 16.4165 9.09067 16.5156 8.88259 16.6296C8.87889 16.6397 8.87448 16.6541 8.86998 16.6736L8.86783 16.683L8.86478 16.6922C8.85161 16.7316 8.83567 16.7717 8.81542 16.8072C8.79836 16.837 8.76245 16.8924 8.69687 16.9252L8.69439 16.9265L8.6919 16.9276C8.5517 16.993 8.36795 16.9894 8.18008 16.961C7.96937 16.9308 7.78417 16.8711 7.63909 16.7696L7.6383 16.769L7.6375 16.7684C7.5528 16.708 7.52528 16.6122 7.51365 16.5582C7.49969 16.4933 7.49467 16.4169 7.49467 16.3349C7.49467 16.1697 7.51539 15.9461 7.55415 15.6687C7.58744 15.3916 7.62278 15.1681 7.66075 15.0015C7.67978 14.9182 7.70045 14.8446 7.72365 14.7836C7.74475 14.7281 7.77601 14.6606 7.82664 14.61C7.86348 14.5731 7.91115 14.5431 7.95442 14.5189C8.00101 14.4929 8.05745 14.4658 8.122 14.4375C8.25109 14.381 8.4235 14.3151 8.63711 14.2402C8.8959 14.147 9.12751 14.0693 9.33147 14.0074L8.79217 13.4681C8.425 13.5639 8.12167 13.6544 7.88106 13.7395C7.61997 13.8318 7.44465 13.9136 7.34214 13.9822C7.19809 14.1051 7.10462 14.1889 7.0569 14.2366L7.03534 14.2582L7.00834 14.2725C6.87137 14.345 6.70492 14.3682 6.52647 14.362C6.355 14.3561 6.1772 14.3212 6.05959 14.2036C6.00231 14.1463 5.96894 14.073 5.94761 14.0055C5.92553 13.9357 5.91119 13.8549 5.90209 13.7671C5.884 13.5919 5.88461 13.3653 5.9013 13.0918C5.9125 12.8189 5.93364 12.5958 5.96678 12.4272C5.98333 12.3428 6.00405 12.2659 6.03105 12.2008C6.05659 12.1392 6.09583 12.0678 6.16108 12.017L6.17739 12.0044L6.1959 11.9952C6.48076 11.8547 6.7397 11.7388 6.97225 11.6482L5.91747 10.5934C5.59792 10.6204 5.19658 10.7468 4.7079 10.9887L4.7065 10.9893L4.70514 10.99C4.49495 11.0901 4.27893 11.2096 4.05706 11.3488C4.02821 11.4386 3.96475 11.5157 3.90267 11.5778C3.82726 11.6532 3.72743 11.6906 3.63168 11.7097C3.53444 11.7292 3.42158 11.7337 3.29773 11.728C3.17423 11.725 3.06519 11.7148 2.97677 11.6936C2.90032 11.6752 2.78631 11.637 2.72143 11.5361C2.65166 11.4285 2.62076 11.275 2.60526 11.1129C2.58891 10.942 2.58713 10.7265 2.59823 10.4697C2.60389 10.2126 2.61936 9.99253 2.64566 9.81135C2.67144 9.63379 2.70941 9.48009 2.76727 9.36351C2.79935 9.29685 2.85303 9.25153 2.89567 9.222C2.94229 9.18975 2.9979 9.16139 3.05771 9.13574C3.1772 9.08451 3.33729 9.03421 3.53295 8.98382C3.93481 8.87109 4.18179 8.74251 4.30906 8.61525C4.40951 8.51479 4.52084 8.34093 4.6374 8.07646C4.69581 7.93467 4.7485 7.81626 4.79537 7.72256C4.84037 7.63256 4.88626 7.55235 4.933 7.49695C4.98714 7.43226 5.06247 7.38492 5.13751 7.34817C5.21584 7.30987 5.31062 7.27514 5.41867 7.24303L5.42045 7.24251L5.42219 7.24204C5.52639 7.21307 5.62065 7.19315 5.69983 7.18762C5.73939 7.18485 5.78312 7.18509 5.82625 7.19339ZM5.53267 7.63289C5.43794 7.6611 5.36678 7.6882 5.31606 7.713C5.29075 7.72537 5.2727 7.73615 5.26033 7.74482C5.24856 7.75312 5.24444 7.75771 5.24444 7.75771L5.24401 7.75823L5.2435 7.75879C5.22986 7.77496 5.20155 7.81842 5.15865 7.90425C5.11764 7.98618 5.06884 8.09545 5.01203 8.2334L5.01109 8.23565L5.01011 8.23785C4.88481 8.52267 4.74878 8.74996 4.59627 8.90245C4.39347 9.10528 4.06306 9.2572 3.64042 9.37551L3.63833 9.37612L3.63624 9.37664C3.44753 9.4252 3.30972 9.46964 3.21771 9.50906C3.17155 9.52884 3.14287 9.54487 3.12687 9.55593C3.12614 9.55645 3.12545 9.55696 3.12481 9.55739C3.09727 9.61865 3.06947 9.71915 3.04762 9.86971C3.02445 10.0293 3.00967 10.2324 3.00427 10.4808L3.00421 10.483L3.00412 10.4852C2.99331 10.7338 2.9957 10.9291 3.00958 11.0742C3.02088 11.1923 3.03844 11.2596 3.05163 11.2932C3.05687 11.2949 3.06345 11.2967 3.07156 11.2987C3.12018 11.3103 3.19745 11.3194 3.30964 11.322L3.31211 11.322L3.31457 11.3221C3.42096 11.3272 3.49853 11.3221 3.55202 11.3114C3.601 11.3016 3.61588 11.2899 3.61612 11.2899C3.64 11.266 3.65496 11.2477 3.6637 11.2349C3.66754 11.2293 3.66954 11.2257 3.67042 11.2239C3.67798 11.1945 3.68922 11.1599 3.70746 11.127C3.72178 11.1013 3.7527 11.0544 3.80964 11.0247C4.05375 10.8699 4.29358 10.7362 4.52912 10.6239C5.0853 10.3488 5.57495 10.1947 5.99078 10.1825L6.07839 10.1799L7.72164 11.8232L7.40472 11.9248C7.13453 12.0115 6.80453 12.1494 6.41312 12.341C6.4112 12.3449 6.40891 12.35 6.40628 12.3562C6.39339 12.3874 6.379 12.4357 6.36531 12.5055C6.33798 12.6448 6.31787 12.8448 6.30705 13.1104L6.30695 13.1125L6.30681 13.1145C6.29059 13.3796 6.29125 13.5817 6.30611 13.7253C6.31356 13.7971 6.32397 13.8485 6.33494 13.8832C6.3415 13.9041 6.34689 13.9144 6.34895 13.9181C6.35336 13.9212 6.36503 13.9283 6.38955 13.9357C6.42283 13.9456 6.47186 13.9537 6.54048 13.9561C6.66212 13.9603 6.74345 13.9453 6.79567 13.924C6.85947 13.8629 6.95776 13.7761 7.08714 13.6659L7.09506 13.6592L7.10364 13.6533C7.25008 13.5524 7.4688 13.4544 7.74564 13.3566C8.026 13.2575 8.3792 13.1539 8.80361 13.0457L8.91564 13.0172L10.118 14.2195L9.77003 14.3065C9.51512 14.3703 9.18372 14.4751 8.77394 14.6227L8.77314 14.6229L8.77234 14.6232C8.56248 14.6968 8.40072 14.7588 8.28503 14.8095C8.22709 14.8349 8.1834 14.8563 8.15223 14.8737C8.13409 14.8838 8.12336 14.8908 8.11783 14.8947C8.11506 14.8999 8.11 14.9103 8.1033 14.9279C8.08933 14.9647 8.07353 15.0183 8.05675 15.0919C8.02328 15.2386 7.9899 15.4467 7.95719 15.7191L7.95695 15.7211L7.95667 15.723C7.91856 15.9953 7.90084 16.1976 7.90084 16.3349C7.90084 16.3933 7.90412 16.4337 7.9083 16.4597C7.98306 16.5022 8.09008 16.5379 8.23844 16.5591L8.23928 16.5592L8.24012 16.5593C8.3583 16.5772 8.43325 16.5763 8.47708 16.5703C8.49615 16.492 8.52873 16.4016 8.59455 16.3357C8.62445 16.3058 8.65867 16.2844 8.69406 16.2697C8.92075 16.146 9.16314 16.0394 9.4209 15.9496C9.99353 15.7378 10.5837 15.6027 11.191 15.5445C11.4863 14.8384 11.645 14.4562 11.6698 14.3917L11.6701 14.3909L11.6704 14.3902C11.7654 14.1486 11.824 13.968 11.8508 13.8438C11.8617 13.793 11.866 13.7578 11.8668 13.7354L5.72458 7.59309C5.68534 7.59623 5.62295 7.6079 5.53267 7.63289ZM11.866 13.7116C11.866 13.7116 11.8663 13.7125 11.8666 13.7148C11.8661 13.7128 11.866 13.7116 11.866 13.7116ZM7.91481 16.4871C7.91472 16.4872 7.9142 16.486 7.91331 16.483C7.91444 16.4855 7.91486 16.487 7.91481 16.4871ZM3.11725 9.56339C3.11725 9.56339 3.11753 9.5631 3.11823 9.56249C3.11762 9.5631 3.11725 9.56339 3.11725 9.56339Z" fill="#231F20"/>
</g>
<path d="M24 0H0V24H24V0Z" fill="#009F55"/>
<path d="M15.7961 16.3222C15.6913 16.3956 15.5471 16.4455 15.3637 16.4717C15.1907 16.498 15.0649 16.4927 14.9863 16.456C14.9654 16.4455 14.9444 16.4087 14.9234 16.3458C14.9077 16.2775 14.8867 16.2303 14.8605 16.204C14.85 16.1935 14.8369 16.1857 14.8212 16.1804C14.6115 16.065 14.3862 15.9652 14.145 15.8812C13.579 15.6713 12.9946 15.5427 12.3918 15.4954C12.0825 14.7553 11.9148 14.3511 11.8886 14.2829C11.7052 13.8157 11.6475 13.548 11.7157 13.4798L17.6279 7.55883C17.6647 7.52208 17.7773 7.52996 17.9661 7.58246C18.16 7.64021 18.2832 7.70058 18.3356 7.76353C18.3932 7.83178 18.4771 7.99974 18.5872 8.26744C18.7025 8.52989 18.8204 8.72152 18.941 8.84222C19.0982 8.99972 19.3733 9.13355 19.7665 9.2438C20.1334 9.33825 20.3352 9.42488 20.3718 9.50363C20.4557 9.67158 20.5029 9.99703 20.5133 10.4799C20.5343 10.9628 20.5055 11.2647 20.4269 11.3854C20.3902 11.4431 20.2591 11.4746 20.0338 11.4799C19.8136 11.4904 19.6695 11.4615 19.6013 11.3933C19.5437 11.3356 19.5097 11.2857 19.4992 11.2437C19.4887 11.2017 19.4756 11.1781 19.4598 11.1728C19.2292 11.0258 19.0038 10.8998 18.7837 10.7949C18.2648 10.5377 17.8271 10.4038 17.4707 10.3933L16.1892 11.6767C16.467 11.766 16.8024 11.9077 17.1956 12.1019C17.2899 12.1754 17.3475 12.4693 17.3685 12.9837C17.3999 13.4981 17.3685 13.8026 17.2742 13.8971C17.2165 13.9548 17.1117 13.9863 16.9597 13.9916C16.8077 13.9968 16.6871 13.9758 16.598 13.9286C16.5456 13.8761 16.4487 13.7895 16.3072 13.6688C16.0713 13.506 15.5524 13.3223 14.7504 13.1176L13.9249 13.9443C14.1765 14.0073 14.4989 14.1097 14.8919 14.2514C15.2955 14.3931 15.5288 14.4955 15.5917 14.5584C15.6651 14.6319 15.7332 14.9311 15.7961 15.4561C15.8695 15.981 15.8695 16.2697 15.7961 16.3222Z" fill="white"/>
<path d="M8.22953 16.3218C8.33496 16.3955 8.47985 16.4455 8.6643 16.4718C8.83821 16.4981 8.96467 16.4928 9.04375 16.456C9.0648 16.4455 9.08589 16.4086 9.10699 16.3454C9.12278 16.277 9.14388 16.2297 9.17022 16.2034C9.18077 16.1928 9.19394 16.1849 9.20974 16.1797C9.42053 16.0639 9.64713 15.9639 9.88956 15.8797C10.4587 15.6691 11.0463 15.5402 11.6523 15.4928C11.9633 14.7508 12.1319 14.3455 12.1582 14.277C12.3427 13.8086 12.4007 13.5402 12.3322 13.4718L6.38772 7.53495C6.35083 7.49811 6.23753 7.50603 6.04778 7.55867C5.85283 7.61656 5.72899 7.67708 5.6763 7.74022C5.61831 7.80866 5.53399 7.97708 5.42331 8.24548C5.30739 8.50864 5.1888 8.70078 5.06763 8.82181C4.90952 8.97969 4.63284 9.11394 4.2376 9.22442C3.86871 9.31916 3.66582 9.40602 3.62893 9.48495C3.54461 9.65338 3.49718 9.97972 3.48664 10.4639C3.46556 10.9481 3.49454 11.2507 3.57359 11.3718C3.61048 11.4297 3.74223 11.4613 3.96884 11.4665C4.19017 11.477 4.33509 11.4481 4.4036 11.3797C4.46157 11.3218 4.49582 11.2718 4.50636 11.2297C4.5169 11.1876 4.53008 11.1639 4.54589 11.1586C4.77775 11.0113 5.00435 10.885 5.22569 10.7797C5.74741 10.5218 6.18747 10.3876 6.54583 10.3771L7.83428 11.6639C7.555 11.7534 7.21774 11.8955 6.82249 12.0902C6.72761 12.1639 6.66967 12.4587 6.64858 12.9744C6.61694 13.4902 6.64858 13.7955 6.74341 13.8902C6.80139 13.9481 6.90682 13.9797 7.05963 13.985C7.21244 13.9902 7.33366 13.9692 7.42324 13.9218C7.47592 13.8692 7.57342 13.7823 7.71574 13.6613C7.95288 13.4981 8.4746 13.3139 9.28089 13.1086L10.1109 13.9376C9.85792 14.0007 9.53383 14.1034 9.13858 14.2455C8.73283 14.3876 8.49832 14.4902 8.43508 14.5534C8.3613 14.627 8.29277 14.927 8.22953 15.4534C8.15575 15.9797 8.15575 16.2691 8.22953 16.3218Z" fill="white"/>
</g>
</g>
<defs>
<clipPath id="clip0_77_13705">
<rect width="24" height="24" fill="white"/>
</clipPath>
</defs>
</svg>
