<svg width="40" height="40" viewBox="0 0 40 40" fill="none" xmlns="http://www.w3.org/2000/svg">
<path d="M14.1263 27.458C13.7008 27.458 13.3226 27.3792 12.9917 27.2216C12.6687 27.064 12.4126 26.8395 12.2235 26.548C12.0423 26.2486 11.9517 25.894 11.9517 25.4843C11.9517 25.0509 12.0226 24.6846 12.1644 24.3852C12.3062 24.0779 12.5071 23.7982 12.7671 23.5461C12.909 23.3885 13.0981 23.1994 13.3344 22.9788C13.5787 22.7503 13.8505 22.506 14.1499 22.246C14.4493 21.986 14.7527 21.7299 15.0599 21.4778C15.3672 21.2257 15.6587 21.0051 15.9345 20.816C16.3521 20.5875 16.6751 20.3826 16.9036 20.2014C17.1321 20.0123 17.2464 19.835 17.2464 19.6696C17.2464 19.5199 17.1755 19.378 17.0336 19.2441C16.8918 19.1101 16.6397 18.9486 16.2773 18.7595C16.0409 18.6177 15.7809 18.4522 15.4972 18.2632C15.2136 18.0741 14.926 17.881 14.6345 17.684C14.3429 17.4792 14.0593 17.2783 13.7835 17.0813C13.5156 16.8843 13.2714 16.707 13.0508 16.5495C12.7593 16.3604 12.5268 16.1122 12.3535 15.8049C12.188 15.4897 12.1053 15.1352 12.1053 14.7412C12.1053 14.2133 12.2195 13.7918 12.448 13.4766C12.6844 13.1615 12.972 12.9369 13.3108 12.803C13.6496 12.6612 13.9805 12.5902 14.3036 12.5902C14.7684 12.5902 15.1624 12.6612 15.4854 12.803C15.8163 12.9369 16.1551 13.1733 16.5018 13.5121C16.7933 13.78 17.0888 14.0833 17.3882 14.4221C17.6876 14.7609 17.9831 15.1155 18.2746 15.4858C18.5661 15.8482 18.8379 16.2107 19.0901 16.5731C19.3028 16.904 19.484 17.1522 19.6337 17.3177C19.7834 17.4752 19.941 17.554 20.1065 17.554C20.2562 17.554 20.3901 17.491 20.5083 17.3649C20.6344 17.231 20.7565 17.0813 20.8747 16.9158C21.0086 16.7267 21.1623 16.5022 21.3356 16.2422C21.5168 15.9822 21.7059 15.7064 21.9029 15.4149C22.0999 15.1234 22.2968 14.8358 22.4938 14.5521C22.6908 14.2685 22.8759 14.0124 23.0493 13.7839C23.3881 13.3584 23.7584 13.0472 24.1602 12.8503C24.5621 12.6454 24.9836 12.543 25.4248 12.543C26.1576 12.543 26.6697 12.7124 26.9612 13.0512C27.2606 13.3821 27.4103 13.8036 27.4103 14.3158C27.4103 14.6073 27.3355 14.9264 27.1858 15.2731C27.0361 15.6119 26.7958 15.9585 26.4649 16.3131C26.2285 16.5967 25.9606 16.8961 25.6612 17.2113C25.3618 17.5265 25.0545 17.8298 24.7393 18.1213C24.4321 18.4129 24.1366 18.665 23.853 18.8777C23.4984 19.122 23.2463 19.315 23.0966 19.4568C22.9547 19.5908 22.8838 19.709 22.8838 19.8114C22.8838 19.9059 22.9469 20.0084 23.0729 20.1187C23.199 20.229 23.3605 20.3511 23.5575 20.485C24.243 20.942 24.8378 21.3793 25.3421 21.7969C25.8463 22.2145 26.2836 22.6242 26.6539 23.026C27.0321 23.42 27.3631 23.8139 27.6467 24.2079C27.7807 24.3891 27.8791 24.594 27.9422 24.8225C28.0131 25.0431 28.0485 25.2519 28.0485 25.4488C28.0485 25.7955 27.9343 26.1107 27.7058 26.3943C27.4852 26.6701 27.2015 26.8868 26.8549 27.0443C26.5161 27.2019 26.1615 27.2807 25.7912 27.2807C25.3578 27.2807 24.9875 27.2177 24.6803 27.0916C24.373 26.9656 24.109 26.8001 23.8884 26.5952C23.7229 26.414 23.526 26.1776 23.2975 25.8861C23.0769 25.5946 22.8484 25.2873 22.612 24.9643C22.3756 24.6412 22.1471 24.334 21.9265 24.0424C21.7138 23.743 21.5326 23.4948 21.3829 23.2979C21.1386 22.9433 20.9259 22.6991 20.7447 22.5651C20.5713 22.4312 20.398 22.3642 20.2247 22.3642C20.0671 22.3642 19.8898 22.4469 19.6928 22.6124C19.4958 22.7778 19.2477 23.0812 18.9482 23.5224C18.6725 23.8612 18.4204 24.1764 18.1919 24.4679C17.9634 24.7515 17.7388 25.0234 17.5182 25.2834C17.3055 25.5434 17.0809 25.8034 16.8445 26.0634C16.6082 26.3234 16.3442 26.5952 16.0527 26.8789C15.8478 27.0365 15.5997 27.1704 15.3081 27.2807C15.0166 27.3989 14.6227 27.458 14.1263 27.458Z" fill="#CF3838"/>
<circle cx="20" cy="20" r="19" stroke="#CF3838" stroke-width="2"/>
</svg>
