<svg width="24" height="24" viewBox="0 0 24 24" fill="none" xmlns="http://www.w3.org/2000/svg">
<path d="M11.6272 4.47807H9.26074C6.63145 4.47807 4.5 6.76876 4.5 9.59448V12.8836C4.5 15.7093 6.63145 18 9.26073 18H12.3212C14.9505 18 17.0819 15.7093 17.0819 12.8836V10.4094L14.3063 13.3923C14.0929 14.358 13.2851 15.0763 12.3212 15.0763H9.26073C8.1339 15.0763 7.22042 14.0946 7.22042 12.8836L7.22042 9.59448C7.22042 8.52735 7.92972 7.63827 8.86928 7.44205L11.6272 4.47807Z" fill="#3D1F14"/>
<path d="M14.1903 2.50332C13.3529 2.62378 13.0069 3.72326 13.6043 4.36526L14.4899 5.31701L11.7246 8.2889C11.1602 8.89546 11.1602 9.87888 11.7246 10.4854C12.289 11.092 13.204 11.092 13.7684 10.4854L16.5337 7.51356L17.2992 8.33619C17.8965 8.97819 18.9196 8.6063 19.0317 7.7064L19.4846 4.07015C19.6333 2.87602 18.6849 1.85673 17.5738 2.01658L14.1903 2.50332Z" fill="#3D1F14"/>
</svg>
