<svg width="41" height="40" viewBox="0 0 41 40" fill="none" xmlns="http://www.w3.org/2000/svg">
<path fill-rule="evenodd" clip-rule="evenodd" d="M30.4656 40H9.36887H9.36794C7.19496 40 6 38.7828 6 36.632V35.8719C6 30.6439 10.8557 26.2742 13.9573 23.4832C14.4129 23.0731 14.8308 22.6971 15.1898 22.3575C15.9731 21.6186 16.3856 20.9456 16.3856 19.9675C16.3856 18.9895 15.9731 18.3378 15.1907 17.5776C14.7639 17.1673 14.254 16.7138 13.6962 16.2176C10.5905 13.4548 6 9.37131 6 4.08455V3.36794C6 1.21628 7.19496 0 9.36794 0H30.4665C32.6821 0 34.0078 1.21628 34.0078 3.56355V4.08455C34.0078 9.35356 29.4481 13.4274 26.3563 16.1897C25.7888 16.6968 25.2707 17.1597 24.8393 17.5776C24.056 18.3378 23.6435 18.9895 23.6435 19.9675C23.6435 20.9456 24.056 21.6186 24.8384 22.3575C25.1958 22.6953 25.6114 23.0693 26.0646 23.4769C29.1662 26.2672 34.0263 30.6394 34.0069 35.8719V36.4374C34.0069 38.7837 32.6821 40 30.4656 40ZM16.3999 32.7046C15.7528 33.2446 14.4116 33.8315 11.7528 34.1133C9.62337 34.3363 11.4587 36.6371 13.4587 36.6958C15.4117 36.7545 21.3411 36.3436 25.3412 34.935C29.3412 33.5263 26.9294 28.3612 25.2235 27.0699C24.3022 26.3711 24.4538 27.7727 24.6019 29.1411C24.7298 30.3241 24.8551 31.4822 24.2823 31.2372C23.5169 30.9063 23.1319 30.0715 22.7897 29.3297C22.5009 28.7034 22.2426 28.1434 21.8117 28.009C21.3106 27.8502 21.3708 28.9264 21.4297 29.9807C21.4884 31.0304 21.5459 32.0584 21.047 31.8242C20.6906 31.6565 20.4885 31.3043 20.2737 30.93C19.9921 30.4394 19.6889 29.911 18.9882 29.7112C18.3596 29.5353 18.2355 29.8483 18.0082 30.4221C17.7802 30.9974 17.4483 31.8348 16.3999 32.7046Z" fill="#009F55"/>
</svg>
