<svg width="24" height="24" viewBox="0 0 24 24" fill="none" xmlns="http://www.w3.org/2000/svg">
<g clip-path="url(#clip0_24_1659)">
<path d="M12.0678 21.2985C9.56116 21.2985 9.25146 21.27 7.66773 21.2131C6.08401 21.1561 4.85918 21.0592 3.99326 20.9225C3.13873 20.7858 2.54626 20.5921 2.21584 20.3414C1.89682 20.0908 1.7373 19.7718 1.7373 19.3844C1.7373 18.9628 1.931 18.6096 2.31838 18.3248C2.71716 18.0399 3.3723 17.812 4.2838 17.6411C5.1953 17.4702 6.42582 17.3506 7.97536 17.2822C9.5363 17.2139 9.74346 17.1797 12.0678 17.1797C14.9618 17.1797 16.0583 17.231 17.7104 17.3335C19.3625 17.4474 20.5304 17.6582 21.214 17.9659C21.8976 18.2735 22.2394 18.7235 22.2394 19.316C22.2394 19.8857 21.9033 20.313 21.2311 20.5978C20.5702 20.8826 19.4138 21.0706 17.7617 21.1618C16.121 21.2529 15.0074 21.2985 12.0678 21.2985Z" fill="#3D1F14"/>
<path d="M12.0669 14.0593C9.5603 14.0593 7.51513 14.0308 5.9314 13.9738C4.34768 13.9168 3.12285 13.82 2.25693 13.6833C1.4024 13.5465 0.80993 13.3528 0.479512 13.1022C0.160489 12.8515 0.000976562 12.5325 0.000976562 12.1451C0.000976562 11.7235 0.19467 11.3703 0.582056 11.0855C0.980836 10.8007 1.63597 10.5728 2.54747 10.4019C3.45897 10.231 4.68949 10.1113 6.23903 10.043C7.79997 9.97461 9.7426 9.94043 12.0669 9.94043C14.9609 9.94043 17.234 9.9917 18.8861 10.0942C20.5381 10.2082 21.706 10.419 22.3896 10.7266C23.0732 11.0342 23.4151 11.4843 23.4151 12.0768C23.4151 12.6464 23.0789 13.0737 22.4067 13.3585C21.7459 13.6434 20.5894 13.8314 18.9373 13.9225C17.2966 14.0137 15.0065 14.0593 12.0669 14.0593Z" fill="#3D1F14"/>
<path d="M14.7155 6.82C12.2089 6.82 10.1637 6.79151 8.57996 6.73454C6.99624 6.67758 5.77141 6.58073 4.90549 6.444C4.05096 6.30728 3.45849 6.11359 3.12807 5.86293C2.80905 5.61226 2.64954 5.29324 2.64954 4.90585C2.64954 4.48429 2.84323 4.13108 3.23062 3.84624C3.6294 3.5614 4.28453 3.33352 5.19603 3.16262C6.10753 2.99171 7.33805 2.87208 8.88759 2.80371C10.4485 2.73535 12.3912 2.70117 14.7155 2.70117C17.6095 2.70117 17.8199 2.75244 19.472 2.85499C21.1241 2.96892 22.2919 3.17971 22.9755 3.48734C23.6592 3.79497 24.001 4.24502 24.001 4.83749C24.001 5.40718 23.6649 5.83444 22.9926 6.11928C22.3318 6.40413 21.1753 6.59212 19.5232 6.68327C17.8825 6.77442 17.6551 6.82 14.7155 6.82Z" fill="#3D1F14"/>
</g>
<defs>
<clipPath id="clip0_24_1659">
<rect width="24" height="24" fill="white"/>
</clipPath>
</defs>
</svg>
