<svg width="24" height="24" viewBox="0 0 24 24" fill="none" xmlns="http://www.w3.org/2000/svg">
<path fill-rule="evenodd" clip-rule="evenodd" d="M17.9108 23.8069C18.0471 23.9306 18.232 24 18.4247 24C18.6175 24 18.8023 23.9306 18.9387 23.8069L23.7873 19.4062C23.9235 19.2824 24 19.1146 24 18.9397C24 18.7648 23.9235 18.597 23.7873 18.4732L18.9387 14.0725C18.8721 14.0076 18.7918 13.9556 18.7026 13.9195C18.6134 13.8834 18.5171 13.864 18.4194 13.8625C18.3218 13.8609 18.2248 13.8772 18.1342 13.9104C18.0436 13.9436 17.9614 13.993 17.8923 14.0557C17.8233 14.1184 17.7688 14.1931 17.7322 14.2753C17.6957 14.3575 17.6777 14.4455 17.6794 14.5341C17.6811 14.6228 17.7025 14.7102 17.7423 14.7912C17.782 14.8721 17.8393 14.945 17.9108 15.0054L21.5182 18.2796H13.5761C12.8847 18.2796 11.8306 18.086 10.9705 17.5236C10.1482 16.9867 9.4548 16.0845 9.4548 14.539C9.4548 14.3639 9.37817 14.196 9.24178 14.0722C9.10539 13.9484 8.9204 13.8788 8.72751 13.8788C8.53462 13.8788 8.34963 13.9484 8.21323 14.0722C8.07684 14.196 8.00021 14.3639 8.00021 14.539C8.00021 16.514 8.92339 17.8131 10.121 18.5956C11.2808 19.3534 12.652 19.5998 13.5761 19.5998H21.5182L17.9108 22.874C17.7746 22.9978 17.6981 23.1655 17.6981 23.3405C17.6981 23.5154 17.7746 23.6832 17.9108 23.8069Z" fill="#3D1F14"/>
<path fill-rule="evenodd" clip-rule="evenodd" d="M6.08922 0.193052C5.95285 0.0694341 5.768 -7.64646e-09 5.57527 0C5.38253 7.64646e-09 5.19768 0.0694342 5.06131 0.193052L0.212699 4.59381C0.076501 4.71758 -8.42463e-09 4.88536 0 5.06029C8.42463e-09 5.23522 0.0765011 5.403 0.212699 5.52677L5.06131 9.92752C5.1279 9.99238 5.20819 10.0444 5.2974 10.0805C5.38662 10.1166 5.48292 10.136 5.58058 10.1375C5.67823 10.1391 5.77523 10.1228 5.86579 10.0896C5.95635 10.0564 6.03862 10.007 6.10768 9.94428C6.17674 9.8816 6.23119 9.80693 6.26777 9.72473C6.30435 9.64254 6.32231 9.5545 6.32059 9.46586C6.31886 9.37723 6.29749 9.28982 6.25774 9.20885C6.21799 9.12787 6.16068 9.055 6.08922 8.99456L2.48185 5.7204H10.4239C11.1153 5.7204 12.1694 5.91403 13.0295 6.47645C13.8519 7.01334 14.5452 7.9155 14.5452 9.46104C14.5452 9.63612 14.6218 9.80402 14.7582 9.92781C14.8946 10.0516 15.0796 10.1212 15.2725 10.1212C15.4654 10.1212 15.6504 10.0516 15.7868 9.92781C15.9232 9.80402 15.9998 9.63612 15.9998 9.46104C15.9998 7.48598 15.0766 6.18688 13.879 5.40443C12.7192 4.64662 11.348 4.40017 10.4239 4.40017H2.48185L6.08922 1.12601C6.22542 1.00224 6.30192 0.834463 6.30192 0.659532C6.30192 0.484602 6.22542 0.316823 6.08922 0.193052Z" fill="#3D1F14"/>
</svg>
