<svg width="40" height="40" viewBox="0 0 40 40" fill="none" xmlns="http://www.w3.org/2000/svg">
<path d="M19.4151 28.1255C18.9738 28.1255 18.5444 28.0034 18.1268 27.7591C17.7092 27.507 17.3074 27.1879 16.9213 26.8018C16.5353 26.4079 16.1768 25.9942 15.8458 25.5609C15.5307 25.1827 15.1998 24.7296 14.8531 24.2017C14.5064 23.6738 14.1637 23.1105 13.8249 22.5117C13.494 21.905 13.1788 21.2865 12.8794 20.6562C12.58 20.0258 12.3121 19.4113 12.0757 18.8125C11.8394 18.2058 11.6542 17.6385 11.5203 17.1106C11.3863 16.5827 11.3193 16.1257 11.3193 15.7396C11.3193 15.062 11.5636 14.5381 12.0521 14.1678C12.5485 13.7975 13.1591 13.6123 13.884 13.6123C14.5143 13.6123 15.054 13.7502 15.5031 14.026C15.9601 14.2938 16.291 14.7429 16.4959 15.3733C16.6298 15.8224 16.7756 16.3069 16.9332 16.827C17.0907 17.347 17.2523 17.8709 17.4177 18.3988C17.5911 18.9188 17.7565 19.4152 17.9141 19.888C18.0796 20.3607 18.2332 20.7744 18.375 21.1289C18.6114 21.6962 18.8281 22.1453 19.025 22.4762C19.222 22.8071 19.3993 22.9726 19.5569 22.9726C19.7538 22.9726 19.9745 22.819 20.2187 22.5117C20.463 22.1965 20.7269 21.7592 21.0106 21.1998C21.1839 20.8925 21.3691 20.538 21.566 20.1362C21.763 19.7264 21.96 19.297 22.157 18.8479C22.3618 18.3909 22.5588 17.93 22.7479 17.4652C22.9449 16.9924 23.13 16.5354 23.3034 16.0942C23.5318 15.4796 23.7997 15.0187 24.107 14.7114C24.4143 14.4041 24.757 14.1993 25.1352 14.0969C25.5213 13.9866 25.9428 13.9314 26.3998 13.9314C26.841 13.9314 27.2311 14.0181 27.5699 14.1914C27.9165 14.3648 28.1884 14.5972 28.3853 14.8887C28.5823 15.1724 28.6808 15.4915 28.6808 15.846C28.6808 16.1927 28.5902 16.6182 28.409 17.1224C28.2356 17.6267 27.9953 18.1821 27.688 18.7888C27.3886 19.3955 27.0498 20.018 26.6716 20.6562C26.2935 21.2865 25.8995 21.9089 25.4898 22.5235C25.088 23.1302 24.6901 23.6975 24.2961 24.2254C23.91 24.7533 23.5555 25.2024 23.2324 25.5727C22.7991 26.0612 22.3736 26.4985 21.956 26.8846C21.5385 27.2627 21.1209 27.5661 20.7033 27.7946C20.2857 28.0152 19.8563 28.1255 19.4151 28.1255Z" fill="#009F55"/>
<circle cx="20" cy="20" r="19" stroke="#009F55" stroke-width="2"/>
</svg>
