<svg width="24" height="24" viewBox="0 0 24 24" fill="none" xmlns="http://www.w3.org/2000/svg">
<path fill-rule="evenodd" clip-rule="evenodd" d="M12 24C18.6274 24 24 18.6274 24 12C24 5.37258 18.6274 0 12 0C5.37258 0 0 5.37258 0 12C0 18.6274 5.37258 24 12 24ZM9.72793 19.0835C10.1119 19.3315 10.6479 19.4555 11.3359 19.4555C11.9679 19.4555 12.5039 19.3395 12.9439 19.1075C13.3919 18.8755 13.7599 18.5235 14.0479 18.0515C14.1519 17.8755 14.2439 17.6515 14.3239 17.3795C14.4119 17.1075 14.4919 16.8115 14.5639 16.4915C14.6359 16.1635 14.6959 15.8195 14.7439 15.4595C14.7999 15.0915 14.8439 14.7275 14.8759 14.3675C14.9159 13.9995 14.9439 13.6435 14.9599 13.2995C14.9759 12.9475 14.9839 12.6275 14.9839 12.3395C14.9839 11.3555 14.7959 10.5795 14.4199 10.0115C14.0439 9.4355 13.4559 9.1475 12.6559 9.1475C11.7919 9.1475 11.0839 9.3315 10.5319 9.6995C9.98793 10.0675 9.57593 10.5995 9.29593 11.2955C9.23993 11.4795 9.18393 11.6955 9.12793 11.9435C9.07993 12.1835 9.03593 12.4475 8.99593 12.7355C8.95593 13.0235 8.91593 13.3235 8.87593 13.6355C8.84393 13.9395 8.81593 14.2475 8.79193 14.5595C8.77593 14.8635 8.75993 15.1635 8.74393 15.4595C8.73593 15.7555 8.73193 16.0275 8.73193 16.2755C8.73193 16.9635 8.80393 17.5435 8.94793 18.0155C9.09193 18.4875 9.35193 18.8435 9.72793 19.0835ZM10.2079 7.4075C10.6399 7.7355 11.3559 7.8995 12.3559 7.8995C12.9959 7.8995 13.5879 7.8275 14.1319 7.6835C14.6759 7.5395 15.1119 7.3075 15.4399 6.9875C15.7679 6.6675 15.9319 6.2395 15.9319 5.7035C15.9319 5.2235 15.8159 4.8355 15.5839 4.5395C15.3599 4.2435 15.0599 4.0275 14.6839 3.8915C14.3079 3.7555 13.8959 3.6875 13.4479 3.6875C12.8479 3.6875 12.2479 3.7875 11.6479 3.9875C11.0559 4.1875 10.5599 4.4835 10.1599 4.8755C9.76793 5.2595 9.57193 5.7275 9.57193 6.2795C9.57193 6.7035 9.78393 7.0795 10.2079 7.4075Z" fill="#3D1F14"/>
</svg>
