<svg width="40" height="40" viewBox="0 0 40 40" fill="none" xmlns="http://www.w3.org/2000/svg">
<path d="M20.0617 25.0409C19.8096 25.0409 19.585 25.0054 19.3881 24.9345C19.199 24.8557 19.0335 24.7296 18.8917 24.5563C18.7577 24.383 18.6435 24.1545 18.5489 23.8708C18.4544 23.5872 18.3756 23.2366 18.3126 22.819C18.2574 22.4014 18.2141 21.9089 18.1826 21.3417C18.1589 20.7744 18.1392 20.1243 18.1235 19.3916C18.1156 18.651 18.1116 17.8197 18.1116 16.8979C18.1116 16.5039 18.1156 16.1454 18.1235 15.8224C18.1392 15.4915 18.1589 15.196 18.1826 14.936C18.2141 14.6681 18.2574 14.4317 18.3126 14.2269C18.3677 14.0141 18.4386 13.8329 18.5253 13.6832C18.6198 13.5335 18.7341 13.4114 18.868 13.3168C19.0099 13.2223 19.1753 13.1514 19.3644 13.1041C19.5614 13.0568 19.7899 13.0332 20.0499 13.0332C20.302 13.0332 20.5187 13.0687 20.6999 13.1396C20.889 13.2026 21.0505 13.3011 21.1845 13.435C21.3184 13.5611 21.4248 13.7187 21.5036 13.9078C21.5824 14.0969 21.6454 14.3135 21.6927 14.5578C21.7478 14.802 21.7833 15.0778 21.799 15.3851C21.8227 15.6924 21.8345 16.0233 21.8345 16.3779C21.8424 16.7324 21.8463 17.1106 21.8463 17.5124C21.8463 18.3397 21.8306 19.0882 21.799 19.758C21.7754 20.4277 21.736 21.0265 21.6809 21.5544C21.6257 22.0744 21.5587 22.5274 21.4799 22.9135C21.4011 23.2996 21.3105 23.6305 21.2081 23.9063C21.1136 24.1742 21.0033 24.3908 20.8772 24.5563C20.759 24.7218 20.6329 24.8439 20.499 24.9227C20.3651 25.0015 20.2193 25.0409 20.0617 25.0409ZM19.8844 29.1774C19.6008 29.1774 19.3093 29.1458 19.0099 29.0828C18.7183 29.0198 18.4701 28.8977 18.2653 28.7164C18.0604 28.5352 17.958 28.2713 17.958 27.9246C17.958 27.5937 18.0526 27.31 18.2417 27.0737C18.4308 26.8294 18.675 26.6442 18.9744 26.5182C19.2738 26.3921 19.585 26.3291 19.9081 26.3291C20.1681 26.3291 20.432 26.3724 20.6999 26.4591C20.9757 26.5379 21.2042 26.6679 21.3854 26.8491C21.5745 27.0303 21.669 27.2706 21.669 27.57C21.669 27.9482 21.5824 28.2555 21.409 28.4919C21.2357 28.7361 21.0111 28.9095 20.7354 29.0119C20.4675 29.1222 20.1838 29.1774 19.8844 29.1774Z" fill="#D48C00"/>
<path fill-rule="evenodd" clip-rule="evenodd" d="M16.2555 5.97799C17.7895 3.35954 21.5665 3.33619 23.1328 5.93546L37.225 29.3207C38.8315 31.9867 36.9116 35.3853 33.799 35.3853H6.00605C2.91552 35.3853 0.992477 32.0299 2.55475 29.3633L16.2555 5.97799ZM21.4198 6.96773C20.6366 5.66809 18.7482 5.67977 17.9811 6.98899L4.2804 30.3743C3.49926 31.7076 4.46078 33.3853 6.00605 33.3853H33.799C35.3553 33.3853 36.3152 31.686 35.512 30.353L21.4198 6.96773Z" fill="#D48C00"/>
</svg>
