<svg width="136" height="118" viewBox="0 0 136 118" fill="none" xmlns="http://www.w3.org/2000/svg">
<path opacity="0.1" d="M42.3763 104.494H34.5686V104.578H42.3763V104.494Z" fill="#3D1F14"/>
<path opacity="0.1" d="M83.1736 102.527H84.6489V98.3233H81.6208L83.1736 102.527Z" fill="#3D1F14"/>
<path opacity="0.1" d="M45.5534 75.611H37.776V102.527H45.5534V75.611Z" fill="#3D1F14"/>
<path opacity="0.1" d="M84.6522 75.611H44.2665V100.459H84.6522V75.611Z" fill="#3D1F14"/>
<path d="M82.1362 94.8675H66.3187C65.4699 94.8641 64.7828 94.177 64.7794 93.3282V78.2012C64.7828 77.3524 65.4699 76.6653 66.3187 76.6619H82.1328C82.9816 76.6653 83.6688 77.3524 83.6721 78.2012V93.3282C83.6688 94.177 82.9816 94.8641 82.1362 94.8675ZM66.3187 77.0089C65.6585 77.0089 65.123 77.5444 65.1196 78.2046V93.3316C65.1129 93.9918 65.6417 94.534 66.3053 94.5441C66.3086 94.5441 66.3154 94.5441 66.3187 94.5441H82.1328C82.793 94.5509 83.3353 94.0187 83.342 93.3551C83.342 93.3484 83.342 93.3383 83.342 93.3316V78.2046C83.3387 77.5444 82.8031 77.0089 82.1429 77.0089H66.3187Z" fill="#E0E0E0"/>
<path d="M62.5935 94.8675H46.7794C45.9306 94.8641 45.2435 94.177 45.2401 93.3282V78.2012C45.2435 77.3524 45.9306 76.6653 46.7794 76.6619H62.5935C63.4423 76.6619 64.1328 77.3491 64.1328 78.2012V93.3282C64.1328 94.177 63.4423 94.8675 62.5935 94.8675ZM46.7794 77.0089C46.1192 77.0089 45.5837 77.5444 45.5837 78.2046V93.3316C45.5837 93.9918 46.1192 94.5273 46.7794 94.5273H62.5935C63.2537 94.5273 63.7893 93.9918 63.7926 93.3316V78.2046C63.7893 77.5444 63.2537 77.0089 62.5935 77.0089H46.7794Z" fill="#E0E0E0"/>
<path d="M61.1247 81.4448C60.3028 81.4482 59.6359 80.7813 59.6359 79.9628C59.6325 79.1409 60.2994 78.474 61.1179 78.474C61.9398 78.4706 62.6067 79.1376 62.6067 79.9561C62.6067 79.9594 62.6067 79.9594 62.6067 79.9628C62.6067 80.7813 61.9432 81.4448 61.1247 81.4448Z" fill="#FAFAFA"/>
<path d="M67.7874 81.4448C66.9656 81.4516 66.2953 80.788 66.2919 79.9695C66.2852 79.1476 66.9487 78.4807 67.7672 78.474C68.5891 78.4673 69.256 79.1308 69.2627 79.9493C69.2627 79.956 69.2627 79.9661 69.2627 79.9729C69.2594 80.7846 68.5992 81.4414 67.7874 81.4448Z" fill="#FAFAFA"/>
<path d="M45.7418 102.527H44.2665V98.3233H47.2912L45.7418 102.527Z" fill="#F0F0F0"/>
<path opacity="0.1" d="M43.0774 75.611H35.3V102.527H43.0774V75.611Z" fill="#3D1F14"/>
<path d="M41.599 102.527H43.0776V98.3233H40.0496L41.599 102.527Z" fill="#F0F0F0"/>
<path opacity="0.1" d="M43.0774 75.6109H2.69165V100.459H43.0774V75.6109Z" fill="#3D1F14"/>
<path d="M40.5613 94.8675H24.7438C23.895 94.8675 23.2045 94.1804 23.2012 93.3282V78.2012C23.2045 77.3524 23.8917 76.6619 24.7438 76.6619H40.5579C41.4067 76.6653 42.0939 77.3524 42.0972 78.2012V93.3282C42.0972 94.177 41.4101 94.8641 40.5613 94.8675ZM24.7438 77.0089C24.0837 77.0089 23.5481 77.5444 23.5447 78.2046V93.3316C23.538 93.9918 24.0668 94.534 24.7304 94.5441C24.7337 94.5441 24.7405 94.5441 24.7438 94.5441H40.5579C41.2181 94.5509 41.7604 94.0187 41.7672 93.3551C41.7672 93.3484 41.7672 93.3383 41.7672 93.3316V78.2046C41.7638 77.5444 41.2316 77.0122 40.5714 77.0089H24.7438Z" fill="#E0E0E0"/>
<path opacity="0.2" d="M21.0189 94.8675H5.20813C4.35932 94.8675 3.66882 94.177 3.66882 93.3282V78.2012C3.66882 77.3524 4.35932 76.6619 5.20813 76.6619H21.0222C21.871 76.6653 22.5582 77.3524 22.5615 78.2012V93.3282C22.5582 94.177 21.871 94.8641 21.0189 94.8675ZM5.20813 77.0089C4.54795 77.0089 4.01239 77.5444 4.00902 78.2046V93.3316C4.00228 93.9918 4.5311 94.534 5.19466 94.5441C5.19802 94.5441 5.20476 94.5441 5.20813 94.5441H21.0222C21.6824 94.5441 22.218 94.0086 22.2213 93.3484V78.2046C22.218 77.5444 21.6824 77.0089 21.0222 77.0089H5.20813Z" fill="#8E5A45"/>
<path d="M19.5534 81.4448C18.7315 81.4482 18.0646 80.7813 18.0646 79.9628C18.0612 79.1409 18.7281 78.474 19.5466 78.474C20.3685 78.4706 21.0354 79.1376 21.0354 79.9561C21.0354 79.9594 21.0354 79.9594 21.0354 79.9628C21.0354 80.7813 20.3719 81.4448 19.5534 81.4448Z" fill="#FAFAFA"/>
<path d="M26.2158 81.4448C25.3939 81.4516 24.727 80.788 24.7203 79.9695C24.7135 79.1476 25.3771 78.4807 26.1956 78.474C27.0174 78.4673 27.6844 79.1308 27.6911 79.9493C27.6911 79.956 27.6911 79.9661 27.6911 79.9729C27.6844 80.7846 27.0275 81.4414 26.2158 81.4448Z" fill="#FAFAFA"/>
<path opacity="0.1" d="M74.0588 1.00012H59.5886V15.4703H74.0588V1.00012Z" fill="#3D1F14"/>
<path d="M74.702 1.00348H74.062V15.4736H74.702V1.00348Z" fill="#E0E0E0"/>
<path d="M72.1018 2.96387H61.5524V13.5133H72.1018V2.96387Z" fill="white"/>
<path opacity="0.2" d="M68.5919 10.0002C67.6185 10.9736 66.0354 10.9736 65.062 10.0002C64.0886 9.02677 64.0886 7.44368 65.062 6.47025C66.0354 5.49681 67.6185 5.49681 68.5919 6.47025C69.5654 7.44705 69.5654 9.02677 68.5919 10.0002Z" fill="#8E5A45"/>
<path opacity="0.1" d="M59.885 19.6065H42.9189V36.5726H59.885V19.6065Z" fill="#3D1F14"/>
<path d="M60.6361 19.6099H59.885V36.5759H60.6361V19.6099Z" fill="#E0E0E0"/>
<path d="M57.5878 21.9071H45.2195V34.2754H57.5878V21.9071Z" fill="white"/>
<path opacity="0.2" d="M54.0376 25.4505H48.7628V30.7252H54.0376V25.4505Z" fill="#8E5A45"/>
<path opacity="0.1" d="M121.151 77.7633C124.027 74.0009 130.875 72.6031 133.243 70.2352C136.342 67.1262 136.325 62.4612 133.688 60.777C131.397 59.3152 123.798 69.2045 122.943 70.3093C119.995 74.1087 119.147 76.9313 118.591 79.663C118.652 77.3422 118.716 75.2068 118.766 73.563C118.928 68.194 119.126 66.4694 119.217 65.9406C119.544 65.6779 119.911 65.3781 120.127 65.2164C121.966 63.8455 126.042 62.2119 128.083 60.2213C131.057 57.3111 130.579 53.8283 128.49 52.5315C126.311 51.1774 122.451 54.3806 120.403 57.5569C118.355 60.7332 119.231 63.7748 118.658 66.3953C118.537 66.914 118.412 68.8777 118.298 71.6027C117.813 68.9182 116.331 66.5166 114.145 64.883C111.322 62.6296 108.887 59.8912 106.563 60.2448C104.239 60.5985 105.502 64.2261 107.327 66.7726C108.964 69.0394 117.045 71.3029 118.234 73.1251C118.092 76.8168 117.968 81.4953 117.88 85.8539C117.24 83.6039 117.681 83.4153 115.071 79.9628C113.518 77.9149 107.156 75.3785 106.401 76.7932C105.647 78.2079 106.795 80.8621 109.197 82.7248C111.134 84.227 115.415 84.2236 116.428 85.1567C116.661 85.3722 117.425 86.2076 117.867 86.6892C117.762 92.0044 117.715 91.3833 117.769 92.9832L118.183 93.0001C118.163 92.5891 118.214 95.2009 118.294 91.6204C119.339 89.7139 126.368 88.6024 128.537 86.6219C130.808 84.5504 132.438 82.1319 131.468 80.5118C130.656 79.1611 124.266 80.9968 121.646 83.2367C119.915 84.7255 118.857 86.3153 118.372 88.4542C118.433 86.0156 118.5 83.3984 118.564 80.9261C119.086 80.3097 120.289 78.8917 121.151 77.7633Z" fill="#3D1F14"/>
<path opacity="0.1" d="M121.764 102.456H114.468C114.067 102.456 113.724 101.937 113.646 101.217L113.128 96.4977H123.101L122.582 101.217C122.502 101.937 122.161 102.456 121.764 102.456Z" fill="#3D1F14"/>
<path opacity="0.1" d="M123.31 96.4878H112.915C112.666 96.4878 112.457 96.1443 112.43 95.6862L112.218 94.0321C112.184 93.4966 112.41 93.0284 112.703 93.0284H123.522C123.812 93.0284 124.041 93.4966 124.007 94.0321L123.795 95.6862C123.771 96.1443 123.559 96.4878 123.31 96.4878Z" fill="#3D1F14"/>
<path opacity="0.1" d="M68.2384 117.556C104.307 117.556 133.546 115.849 133.546 113.743C133.546 111.638 104.307 109.93 68.2384 109.93C32.17 109.93 2.93079 111.638 2.93079 113.743C2.93079 115.849 32.17 117.556 68.2384 117.556Z" fill="#3D1F14"/>
<path d="M65.1804 33.1656C64.436 34.9744 60.0538 34.8531 55.4595 32.9568C50.8652 31.0604 47.7461 28.0593 48.4939 26.2539C48.6657 25.8362 49.1473 24.27 49.6661 24.051C51.3771 23.3302 54.6343 24.9537 58.1609 26.4088C61.4449 27.7629 65.1972 28.6353 65.7799 30.4171C66.1336 31.5051 65.3926 32.6503 65.1804 33.1656Z" fill="#009F55"/>
<path opacity="0.2" d="M65.7832 30.4204C66.0628 31.8384 65.4464 32.5188 65.1803 33.1655C64.9041 33.8324 64.1361 34.2366 63.0481 34.3848C62.9168 34.405 62.7787 34.4185 62.6372 34.4286C61.9063 34.4825 61.0609 34.4387 60.138 34.2973C60.0201 34.2838 59.9022 34.2602 59.7809 34.24C58.8782 34.0851 57.9149 33.8358 56.9212 33.5057C56.8135 33.4687 56.7057 33.4316 56.5979 33.3912C56.2206 33.2598 55.8367 33.115 55.456 32.9567C55.0754 32.8017 54.7049 32.6333 54.3445 32.4615C54.2401 32.4144 54.139 32.3639 54.038 32.3133C53.1319 31.8654 52.3134 31.377 51.5892 30.8784C51.4949 30.8144 51.404 30.7471 51.3131 30.6865C50.5586 30.1374 49.9253 29.5749 49.447 29.0192C49.3628 28.9248 49.2887 28.8339 49.2146 28.7396C48.4904 27.82 48.2041 26.9477 48.4904 26.2504C48.6757 25.7991 49.0832 24.2665 49.6592 24.0476C50.2352 23.832 50.9796 23.8623 51.8419 24.0442C51.953 24.0678 52.0675 24.0947 52.1821 24.125C53.883 24.5562 55.9882 25.5161 58.154 26.4087C60.7106 27.463 63.7319 28.5577 65.2106 29.8208C65.3015 29.8983 65.3857 29.9757 65.4632 30.0566C65.5912 30.1778 65.6923 30.2991 65.7832 30.4204Z" fill="black"/>
<g opacity="0.2">
<path d="M52.3437 23.8455L52.1888 24.1285L49.4537 29.0226C49.3695 28.9283 49.2954 28.8373 49.2213 28.743L51.8486 24.0476L52.0507 23.6838L52.3437 23.8455Z" fill="black"/>
</g>
<g opacity="0.2">
<path d="M54.412 25.8394L51.5927 30.8817C51.4984 30.8177 51.4075 30.7504 51.3165 30.6898L54.1189 25.6744L54.412 25.8394Z" fill="black"/>
</g>
<g opacity="0.2">
<path d="M59.596 28.7362L56.9283 33.5091C56.8206 33.472 56.7128 33.435 56.605 33.3946L59.303 28.5712L59.596 28.7362Z" fill="black"/>
</g>
<g opacity="0.2">
<path d="M57.1841 27.389L54.348 32.465C54.2436 32.4178 54.1426 32.3673 54.0415 32.3168L56.8877 27.2239L57.1841 27.389Z" fill="black"/>
</g>
<g opacity="0.2">
<path d="M62.7379 29.6592L60.141 34.3007C60.0231 34.2872 59.9052 34.2636 59.7839 34.2434L62.4415 29.4908L62.7379 29.6592Z" fill="black"/>
</g>
<path d="M65.763 31.5757C65.0186 33.3845 60.6903 33.3138 56.096 31.4174C51.5016 29.5211 48.3826 26.5199 49.1304 24.7145C49.8748 22.9058 54.203 22.9765 58.7973 24.8729C63.3883 26.7692 66.5073 29.7703 65.763 31.5757Z" fill="#009F55"/>
<path opacity="0.2" d="M64.2002 30.9324C63.6748 32.209 60.2997 32.0304 56.6654 30.5316C53.031 29.0327 50.5115 26.7827 51.037 25.5027C51.5624 24.2261 54.9374 24.4046 58.5718 25.9035C62.2095 27.4058 64.729 29.6558 64.2002 30.9324Z" fill="white"/>
<path d="M88.3941 16.816C89.5898 18.3621 87.3061 22.1009 83.3787 25.1458C79.4513 28.1874 75.2948 29.4 74.0991 27.8539C73.8229 27.4969 72.7046 26.2978 72.772 25.742C72.9976 23.8995 76.0257 21.8819 79.0437 19.5444C81.8529 17.3684 84.4734 14.5458 86.3125 14.9264C87.4274 15.1622 88.0539 16.3782 88.3941 16.816Z" fill="#009F55"/>
<path opacity="0.2" d="M86.3125 14.9298C87.6833 15.3946 87.9663 16.2636 88.3941 16.816C88.8353 17.3853 88.805 18.2543 88.3941 19.2715C88.3469 19.3962 88.2896 19.5208 88.229 19.6488C87.9124 20.309 87.4543 21.023 86.875 21.7506C86.8042 21.8449 86.7268 21.9358 86.6493 22.0302C86.0666 22.7341 85.3693 23.4482 84.5879 24.1454C84.5037 24.2195 84.4161 24.297 84.3285 24.3711C84.0254 24.6305 83.7121 24.8932 83.382 25.1458C83.0587 25.3984 82.7286 25.6376 82.4019 25.8633C82.3076 25.9306 82.2133 25.9913 82.1223 26.0553C81.2836 26.6178 80.4516 27.0893 79.6567 27.4666C79.5523 27.5171 79.4513 27.5609 79.3502 27.608C78.5014 27.9886 77.693 28.2581 76.9789 28.3996C76.8577 28.4265 76.7398 28.4467 76.6219 28.4636C75.4632 28.6354 74.5639 28.4501 74.1024 27.8539C73.8026 27.4699 72.6776 26.355 72.772 25.7454C72.8696 25.1357 73.2671 24.5058 73.8532 23.8524C73.9306 23.7682 74.0081 23.6806 74.0923 23.5964C75.3116 22.3367 77.1911 20.986 79.0437 19.5511C81.2297 17.8602 83.6818 15.782 85.5142 15.1252C85.6253 15.0848 85.7365 15.0511 85.8443 15.0208C86.0093 14.977 86.1609 14.9467 86.3125 14.9298Z" fill="black"/>
<g opacity="0.2">
<path d="M73.9238 23.3168L74.0889 23.593L76.9721 28.3995C76.8509 28.4265 76.733 28.4467 76.6151 28.4635L73.8497 23.849L73.6342 23.4919L73.9238 23.3168Z" fill="black"/>
</g>
<g opacity="0.2">
<path d="M76.6823 22.5151L79.6531 27.4665C79.5487 27.517 79.4477 27.5608 79.3466 27.608L76.3893 22.6836L76.6823 22.5151Z" fill="black"/>
</g>
<g opacity="0.2">
<path d="M81.7722 19.4602L84.5847 24.1489C84.5005 24.223 84.4129 24.3004 84.3254 24.3745L81.4825 19.6354L81.7722 19.4602Z" fill="black"/>
</g>
<g opacity="0.2">
<path d="M79.4078 20.8817L82.3989 25.8667C82.3046 25.9341 82.2102 25.9947 82.1193 26.0587L79.1182 21.0534L79.4078 20.8817Z" fill="black"/>
</g>
<g opacity="0.2">
<path d="M84.1365 17.1899L86.8715 21.7539C86.8008 21.8482 86.7233 21.9392 86.6458 22.0335L83.8468 17.365L84.1365 17.1899Z" fill="black"/>
</g>
<path d="M82.3575 23.8283C86.2858 20.7859 88.4998 17.0665 87.3027 15.5208C86.1056 13.9751 81.9506 15.1884 78.0223 18.2307C74.094 21.2731 71.88 24.9924 73.0771 26.5382C74.2743 28.0839 78.4292 26.8706 82.3575 23.8283Z" fill="#009F55"/>
<path opacity="0.2" d="M85.9686 16.5567C86.8141 17.648 84.9817 20.4875 81.8728 22.8924C78.7639 25.3007 75.5573 26.3651 74.7118 25.2738C73.8664 24.1825 75.6987 21.343 78.8076 18.938C81.9166 16.5297 85.1232 15.462 85.9686 16.5567Z" fill="white"/>
<path d="M72.1358 9.57412C71.7417 11.7905 66.7836 12.7302 61.1485 11.7298C55.5167 10.7261 51.2693 8.11566 51.6634 5.89933C51.7544 5.38398 51.9127 3.50784 52.4415 3.13397C54.1896 1.90117 58.2518 2.9285 62.58 3.69984C66.6085 4.41728 71.0445 4.47454 72.1392 6.3372C72.7994 7.46895 72.247 8.94089 72.1358 9.57412Z" fill="#009F55"/>
<path opacity="0.2" d="M72.1358 6.33717C72.7994 7.863 72.2739 8.77918 72.1324 9.57409C71.9876 10.3926 71.223 11.0359 70.034 11.4704C69.8925 11.5277 69.741 11.5749 69.5827 11.622C68.7743 11.8612 67.8109 12.0228 66.7398 12.0902C66.6017 12.1037 66.467 12.107 66.3255 12.1138C65.2746 12.1609 64.1294 12.1171 62.9303 11.9892C62.8023 11.9757 62.6676 11.9588 62.5362 11.942C62.0815 11.8847 61.6133 11.8174 61.1451 11.7332C60.6803 11.6523 60.2222 11.5546 59.7742 11.4502C59.6462 11.4233 59.5182 11.3896 59.3936 11.3593C58.2652 11.0763 57.2211 10.7328 56.2847 10.3454C56.16 10.2949 56.0455 10.2444 55.9276 10.1972C54.9475 9.76608 54.0919 9.28442 53.4183 8.78255C53.3004 8.69834 53.1926 8.61413 53.0882 8.52656C52.0474 7.67101 51.5118 6.75821 51.6634 5.90603C51.7611 5.35363 51.8419 3.52802 52.4381 3.14067C53.0343 2.75332 53.8797 2.60511 54.8902 2.60175C55.0216 2.60175 55.1563 2.60174 55.2944 2.60848C57.312 2.67585 59.919 3.23835 62.5733 3.70991C65.7058 4.26905 69.3738 4.75408 71.351 5.81172C71.4723 5.87572 71.5868 5.94308 71.6946 6.01382C71.8596 6.1115 72.0044 6.22265 72.1358 6.33717Z" fill="black"/>
<g opacity="0.2">
<path d="M55.402 2.2447L55.2942 2.59837L53.4181 8.7758C53.3002 8.69159 53.1924 8.60739 53.088 8.51981L54.89 2.59163L55.0281 2.13354L55.402 2.2447Z" fill="black"/>
</g>
<g opacity="0.2">
<path d="M58.218 3.97933L56.2846 10.342C56.16 10.2915 56.0455 10.241 55.9276 10.1938L57.8475 3.86481L58.218 3.97933Z" fill="black"/>
</g>
<g opacity="0.2">
<path d="M64.7627 5.96327L62.9338 11.9891C62.8058 11.9757 62.671 11.9588 62.5397 11.942L64.3889 5.85211L64.7627 5.96327Z" fill="black"/>
</g>
<g opacity="0.2">
<path d="M61.7211 5.04037L59.7776 11.4468C59.6496 11.4199 59.5216 11.3862 59.397 11.3559L61.3472 4.92584L61.7211 5.04037Z" fill="black"/>
</g>
<g opacity="0.2">
<path d="M68.5255 6.22597L66.7436 12.0868C66.6055 12.1003 66.4708 12.1036 66.3293 12.1104L68.1516 6.11145L68.5255 6.22597Z" fill="black"/>
</g>
<path d="M72.3974 7.64289C72.7917 5.42687 68.5446 2.81773 62.9112 1.81522C57.2777 0.812697 52.3912 1.79643 51.9969 4.01245C51.6025 6.22846 55.8496 8.8376 61.4831 9.84012C67.1165 10.8426 72.003 9.8589 72.3974 7.64289Z" fill="#009F55"/>
<path opacity="0.2" d="M70.4818 7.30053C70.2022 8.86678 66.3624 9.49328 61.9061 8.69837C57.4499 7.90345 54.0614 5.99363 54.341 4.42401C54.6205 2.85439 58.4604 2.23126 62.9166 3.02618C67.3728 3.82109 70.7613 5.73428 70.4818 7.30053Z" fill="white"/>
<path d="M92.5188 59.1578L57.8558 61.1754C56.6264 61.2462 55.4205 61.5426 54.2989 62.0445L16.6482 78.896C15.2807 79.509 14.5262 80.9742 14.8327 82.4192L21.0607 111.838C21.4884 113.855 23.7385 114.92 25.6079 113.987L62.7701 95.4342L97.0862 94.2756C98.8882 94.2149 100.236 92.6015 99.9492 90.8466L95.3549 62.6743C95.1158 61.2192 94.011 59.1141 92.5188 59.1578Z" fill="#009F55"/>
<path opacity="0.1" d="M92.5188 59.1578L57.8558 61.1754C56.6264 61.2462 55.4205 61.5426 54.2989 62.0445L16.6482 78.896C15.2807 79.509 14.5262 80.9742 14.8327 82.4192L21.0607 111.838C21.4884 113.855 23.7385 114.92 25.6079 113.987L62.7701 95.4342L97.0862 94.2756C98.8882 94.2149 100.236 92.6015 99.9492 90.8466L95.3549 62.6743C95.1158 61.2192 94.011 59.1141 92.5188 59.1578Z" fill="black"/>
<path d="M22.9374 40.0068L4.74609 56.7731L37.3862 92.1874L55.5776 75.4211L22.9374 40.0068Z" fill="#009F55"/>
<path opacity="0.5" d="M55.5808 75.4164L37.3887 92.1837L4.75 56.7729L16.6872 45.7688L22.9421 40.0023L23.9829 41.134L55.5808 75.4164Z" fill="#FAFAFA"/>
<path d="M23.0554 42.1712L7.00391 56.9653L37.5348 90.0911L53.5863 75.297L23.0554 42.1712Z" stroke="#009F55" stroke-width="0.336828" stroke-miterlimit="10"/>
<path d="M33.9151 70.048C35.7563 68.3508 35.5234 65.1033 33.395 62.7943C31.2667 60.4854 28.0488 59.9895 26.2077 61.6866C24.3665 63.3838 24.5994 66.6313 26.7278 68.9402C28.8561 71.2492 32.074 71.7451 33.9151 70.048Z" fill="#009F55"/>
<path opacity="0.1" d="M37.1972 77.8146L30.7335 80.0444L16.6877 45.7688L22.9426 40.0023L23.9834 41.134L37.1972 77.8146Z" fill="black"/>
<path d="M38.4524 26.13L15.1943 34.5614L31.6083 79.8395L54.8664 71.4081L38.4524 26.13Z" fill="#009F55"/>
<path opacity="0.5" d="M38.4524 26.13L15.1943 34.5614L31.6083 79.8395L54.8664 71.4081L38.4524 26.13Z" fill="#FAFAFA"/>
<path d="M37.7221 28.174L17.1998 35.6136L32.5531 77.9658L53.0754 70.5262L37.7221 28.174Z" stroke="#009F55" stroke-width="0.336828" stroke-miterlimit="10"/>
<path d="M36.956 58.079C39.3099 57.2257 40.3506 54.1408 39.2804 51.1888C38.2103 48.2368 35.4345 46.5355 33.0806 47.3888C30.7267 48.2421 29.686 51.327 30.7562 54.279C31.8263 57.231 34.6021 58.9323 36.956 58.079Z" fill="#009F55"/>
<path d="M92.7439 60.3535L58.5558 62.2802C57.3432 62.3476 56.1542 62.6406 55.0494 63.1391L17.9511 79.8862C16.6038 80.4925 15.8628 81.9577 16.1693 83.4027L22.3905 112.825C22.8183 114.842 25.0414 115.91 26.8838 114.984L63.4971 96.5356L97.3449 95.4645C99.1234 95.4073 100.447 93.8006 100.161 92.0457L95.5564 63.8768C95.3105 62.4217 94.2192 60.3131 92.7439 60.3535Z" fill="#009F55"/>
<path opacity="0.2" d="M59.9471 67.4336L89.2815 65.6282" stroke="black" stroke-width="0.673657" stroke-miterlimit="10" stroke-linecap="round" stroke-linejoin="round"/>
<path opacity="0.2" d="M56.4338 68.1915L61.7928 92.8069" stroke="black" stroke-width="0.673657" stroke-miterlimit="10" stroke-linecap="round" stroke-linejoin="round"/>
<path opacity="0.2" d="M20.7025 90.4155L24.4817 109.352C24.4817 109.349 27.3785 101.837 20.7025 90.4155Z" fill="#FAFAFA"/>
<path opacity="0.2" d="M21.1975 90.6378C21.3255 90.9847 54.7625 76.6257 54.7625 76.6257C54.7625 76.6257 55.6079 86.9462 45.5468 92.5914C35.4858 98.2333 21.1975 90.6378 21.1975 90.6378Z" fill="#FAFAFA"/>
<path d="M43.4082 91.1969C44.2081 91.1969 44.8566 90.5484 44.8566 89.7485C44.8566 88.9486 44.2081 88.3002 43.4082 88.3002C42.6083 88.3002 41.9598 88.9486 41.9598 89.7485C41.9598 90.5484 42.6083 91.1969 43.4082 91.1969Z" fill="#009F55"/>
<path opacity="0.2" d="M54.7827 76.6257C54.7827 76.6257 58.9291 82.8638 57.9253 93.4975L54.7827 76.6257Z" fill="black"/>
<g opacity="0.2">
<path d="M19.1033 82.9781L19.8746 82.6379" stroke="#FAFAFA" stroke-width="0.336828" stroke-linecap="round" stroke-linejoin="round"/>
<path d="M21.4745 81.9306L52.6985 68.1274" stroke="#FAFAFA" stroke-width="0.336828" stroke-linecap="round" stroke-linejoin="round" stroke-dasharray="1.75 1.75"/>
<path d="M53.5001 67.7737L54.2681 67.4335" stroke="#FAFAFA" stroke-width="0.336828" stroke-linecap="round" stroke-linejoin="round"/>
</g>
<path opacity="0.2" d="M60.9303 72.9676L90.2647 71.1588" stroke="black" stroke-width="0.673657" stroke-miterlimit="10" stroke-linecap="round" stroke-linejoin="round"/>
<path opacity="0.2" d="M62.2506 79.8692L91.585 78.0604" stroke="black" stroke-width="0.673657" stroke-miterlimit="10" stroke-linecap="round" stroke-linejoin="round"/>
<mask id="path-79-outside-1_318_1249" maskUnits="userSpaceOnUse" x="67.2185" y="69.1295" width="43" height="48" fill="black">
<rect fill="white" x="67.2185" y="69.1295" width="43" height="48"/>
<path fill-rule="evenodd" clip-rule="evenodd" d="M76.9669 76.7746C79.1983 73.4261 82.8529 71.2522 88.1415 71.1295H88.5808C94.133 71.1295 97.9281 73.3209 100.23 76.7746C104.447 76.2662 107.961 81.4204 107.961 81.4204C107.961 81.4204 105.905 82.5769 103.898 82.2992C106.38 85.5356 107.855 89.5829 107.855 93.9725C107.855 100.343 104.749 105.993 99.965 109.489C100.945 110.499 101.548 111.863 101.548 113.362C101.548 115.023 99.2738 115.018 96.3806 115.011C96.1904 115.01 95.9974 115.01 95.8022 115.01C92.6396 115.01 90.0568 114.957 90.0568 113.362C90.0568 113.286 90.0584 113.209 90.0615 113.133C89.5842 113.169 89.1021 113.187 88.6157 113.187C88.2131 113.187 87.8134 113.175 87.4168 113.15C87.4195 113.221 87.4209 113.291 87.4209 113.362C87.4209 114.957 84.8381 115.01 81.6754 115.01C81.4803 115.01 81.2873 115.01 81.097 115.011C78.2039 115.018 75.93 115.023 75.93 113.362C75.93 111.916 76.4912 110.595 77.4106 109.597C72.5386 106.11 69.3658 100.409 69.3764 93.9725C69.3764 89.5802 70.8529 85.5307 73.3378 82.2933C71.3136 82.5928 69.2185 81.4204 69.2185 81.4204C69.2185 81.4204 72.7325 76.2662 76.9669 76.7746Z"/>
</mask>
<path d="M88.1415 71.1295V69.3456C88.1277 69.3456 88.114 69.3458 88.1002 69.3461L88.1415 71.1295ZM76.9669 76.7746L76.7543 78.5457C77.4222 78.6259 78.0783 78.3235 78.4514 77.7638L76.9669 76.7746ZM100.23 76.7746L98.7454 77.7638C99.1186 78.3238 99.7752 78.6261 100.443 78.5456L100.23 76.7746ZM107.961 81.4204L108.835 82.9751C109.271 82.73 109.584 82.3136 109.698 81.827C109.811 81.3405 109.716 80.8284 109.435 80.4155L107.961 81.4204ZM103.898 82.2992L104.143 80.5322C103.426 80.433 102.72 80.7765 102.356 81.4019C101.993 82.0273 102.042 82.8106 102.483 83.3847L103.898 82.2992ZM99.965 109.489L98.9124 108.049C98.4956 108.354 98.2312 108.824 98.1875 109.338C98.1439 109.853 98.3253 110.361 98.6849 110.731L99.965 109.489ZM96.3806 115.011L96.3763 116.795H96.3763L96.3806 115.011ZM90.0615 113.133L91.8438 113.207C91.8647 112.698 91.6675 112.205 91.3018 111.851C90.9362 111.498 90.4369 111.317 89.9295 111.355L90.0615 113.133ZM87.4168 113.15L87.5261 111.37C87.0232 111.339 86.5307 111.522 86.1702 111.874C85.8098 112.226 85.6151 112.715 85.6343 113.218L87.4168 113.15ZM81.097 115.011L81.1013 116.795H81.1013L81.097 115.011ZM77.4106 109.597L78.7225 110.806C79.069 110.43 79.2374 109.923 79.1851 109.414C79.1328 108.906 78.8647 108.444 78.4489 108.147L77.4106 109.597ZM69.3764 93.9725L71.1603 93.9755V93.9725H69.3764ZM73.3378 82.2933L74.7528 83.3794C75.1953 82.8029 75.2438 82.0156 74.8755 81.3891C74.5071 80.7626 73.7955 80.4223 73.0766 80.5286L73.3378 82.2933ZM69.2185 81.4204L67.7446 80.4155C67.4627 80.829 67.3675 81.3419 67.4821 81.829C67.5967 82.3161 67.9107 82.7327 68.3474 82.977L69.2185 81.4204ZM88.1002 69.3461C82.2785 69.4812 78.0627 71.9134 75.4825 75.7854L78.4514 77.7638C80.334 74.9387 83.4273 73.0232 88.1829 72.9128L88.1002 69.3461ZM88.5808 69.3456H88.1415V72.9133H88.5808V69.3456ZM101.714 75.7853C99.0496 71.787 94.6692 69.3456 88.5808 69.3456V72.9133C93.5968 72.9133 96.8066 74.8547 98.7454 77.7638L101.714 75.7853ZM107.961 81.4204C109.435 80.4155 109.434 80.4151 109.434 80.4146C109.434 80.4144 109.433 80.4139 109.433 80.4135C109.433 80.4128 109.432 80.412 109.431 80.4111C109.43 80.4093 109.429 80.4072 109.427 80.4048C109.424 80.3999 109.42 80.3938 109.414 80.3865C109.404 80.3719 109.391 80.3525 109.374 80.3286C109.34 80.2808 109.292 80.2149 109.232 80.1338C109.111 79.9716 108.937 79.7471 108.717 79.4822C108.279 78.9558 107.642 78.2535 106.849 77.562C105.332 76.2406 102.896 74.6563 100.016 75.0036L100.443 78.5456C101.78 78.3844 103.21 79.123 104.505 80.2516C105.117 80.7851 105.622 81.3396 105.974 81.7637C106.149 81.9741 106.283 82.1483 106.371 82.266C106.415 82.3248 106.447 82.3692 106.467 82.3967C106.476 82.4104 106.483 82.4198 106.486 82.4247C106.488 82.4271 106.489 82.4284 106.489 82.4285C106.489 82.4286 106.489 82.4283 106.489 82.4278C106.488 82.4275 106.488 82.4272 106.488 82.4267C106.488 82.4265 106.487 82.4262 106.487 82.426C106.487 82.4256 106.487 82.4252 107.961 81.4204ZM103.654 84.0661C105.042 84.2584 106.358 83.9517 107.245 83.6566C107.704 83.5039 108.087 83.341 108.36 83.2146C108.496 83.151 108.607 83.0957 108.687 83.0542C108.728 83.0334 108.76 83.016 108.785 83.0026C108.798 82.9959 108.808 82.9902 108.816 82.9856C108.821 82.9833 108.824 82.9812 108.827 82.9795C108.829 82.9786 108.83 82.9778 108.832 82.9771C108.832 82.9767 108.833 82.9763 108.834 82.976C108.834 82.9758 108.834 82.9756 108.834 82.9755C108.835 82.9753 108.835 82.9751 107.961 81.4204C107.086 79.8657 107.086 79.8655 107.087 79.8653C107.087 79.8652 107.087 79.865 107.087 79.8649C107.088 79.8646 107.088 79.8644 107.089 79.8641C107.09 79.8637 107.09 79.8633 107.091 79.863C107.092 79.8623 107.093 79.8619 107.093 79.8618C107.093 79.8616 107.092 79.8623 107.089 79.864C107.083 79.8674 107.069 79.8746 107.049 79.8849C107.009 79.9055 106.944 79.9384 106.857 79.9789C106.681 80.0606 106.425 80.1696 106.119 80.2713C105.477 80.4849 104.761 80.6177 104.143 80.5322L103.654 84.0661ZM109.639 93.9725C109.639 89.1766 108.026 84.7504 105.314 81.2136L102.483 83.3847C104.735 86.3208 106.071 89.9892 106.071 93.9725H109.639ZM101.018 110.929C106.241 107.112 109.639 100.937 109.639 93.9725H106.071C106.071 99.7493 103.257 104.874 98.9124 108.049L101.018 110.929ZM103.331 113.362C103.331 111.373 102.53 109.57 101.245 108.247L98.6849 110.731C99.36 111.427 99.7638 112.352 99.7638 113.362H103.331ZM96.3763 116.795C97.7408 116.798 99.2661 116.812 100.434 116.554C101.032 116.422 101.753 116.177 102.342 115.646C103.004 115.05 103.331 114.243 103.331 113.362H99.7638C99.7638 113.363 99.7644 113.302 99.8038 113.21C99.8446 113.114 99.9033 113.041 99.9525 112.997C100.024 112.932 99.9958 112.997 99.6644 113.07C98.9719 113.223 97.9136 113.231 96.385 113.227L96.3763 116.795ZM95.8022 116.794C95.9949 116.794 96.1857 116.794 96.3763 116.795L96.385 113.227C96.195 113.227 95.9999 113.226 95.8022 113.226V116.794ZM88.273 113.362C88.273 114.334 88.7067 115.144 89.4071 115.695C90.0188 116.176 90.7585 116.404 91.3866 116.532C92.6412 116.788 94.2766 116.794 95.8022 116.794V113.226C94.1652 113.226 92.9279 113.206 92.1004 113.037C91.6875 112.952 91.5838 112.868 91.6124 112.89C91.7297 112.983 91.8406 113.187 91.8406 113.362H88.273ZM88.2791 113.06C88.275 113.16 88.273 113.261 88.273 113.362H91.8406C91.8406 113.31 91.8417 113.258 91.8438 113.207L88.2791 113.06ZM88.6157 114.971C89.1462 114.971 89.6723 114.951 90.1934 114.912L89.9295 111.355C89.4961 111.387 89.058 111.403 88.6157 111.403V114.971ZM87.3076 114.931C87.7404 114.957 88.1766 114.971 88.6157 114.971V111.403C88.2496 111.403 87.8863 111.392 87.5261 111.37L87.3076 114.931ZM85.6343 113.218C85.6361 113.266 85.637 113.314 85.637 113.362H89.2047C89.2047 113.269 89.2029 113.175 89.1994 113.082L85.6343 113.218ZM85.637 113.362C85.637 113.187 85.7479 112.983 85.8652 112.89C85.8938 112.868 85.7901 112.952 85.3773 113.037C84.5497 113.206 83.3125 113.226 81.6754 113.226V116.794C83.201 116.794 84.8365 116.788 86.091 116.532C86.7192 116.404 87.4588 116.176 88.0706 115.695C88.771 115.144 89.2047 114.334 89.2047 113.362H85.637ZM81.6754 113.226C81.4777 113.226 81.2827 113.227 81.0927 113.227L81.1013 116.795C81.2919 116.794 81.4828 116.794 81.6754 116.794V113.226ZM81.0927 113.227C79.564 113.231 78.5058 113.223 77.8133 113.07C77.4818 112.997 77.4535 112.932 77.5251 112.997C77.5743 113.041 77.6331 113.114 77.6739 113.21C77.7133 113.302 77.7138 113.363 77.7138 113.362H74.1462C74.1462 114.243 74.4741 115.05 75.1359 115.646C75.7242 116.177 76.4452 116.422 77.0439 116.554C78.2116 116.812 79.7368 116.798 81.1013 116.795L81.0927 113.227ZM77.7138 113.362C77.7138 112.388 78.0898 111.492 78.7225 110.806L76.0988 108.388C74.8925 109.698 74.1462 111.444 74.1462 113.362H77.7138ZM67.5926 93.9696C67.581 101.009 71.0533 107.24 76.3724 111.048L78.4489 108.147C74.0239 104.979 71.1506 99.8092 71.1603 93.9755L67.5926 93.9696ZM71.9227 81.2071C69.2072 84.745 67.5926 89.1737 67.5926 93.9725H71.1603C71.1603 89.9868 72.4985 86.3164 74.7528 83.3794L71.9227 81.2071ZM69.2185 81.4204C68.3474 82.977 68.3478 82.9773 68.3482 82.9775C68.3484 82.9776 68.3488 82.9778 68.3491 82.978C68.3497 82.9783 68.3503 82.9787 68.351 82.979C68.3523 82.9798 68.3537 82.9806 68.3553 82.9815C68.3585 82.9832 68.3622 82.9853 68.3664 82.9876C68.3749 82.9922 68.3854 82.9979 68.398 83.0047C68.423 83.0182 68.4563 83.0358 68.4971 83.0567C68.5786 83.0986 68.6911 83.1544 68.8301 83.2186C69.1065 83.3462 69.4958 83.5103 69.9614 83.6636C70.861 83.9596 72.1956 84.2655 73.5989 84.0579L73.0766 80.5286C72.4557 80.6205 71.7307 80.49 71.0767 80.2747C70.7656 80.1723 70.5045 80.0621 70.3249 79.9792C70.2358 79.9381 70.1688 79.9046 70.1279 79.8836C70.1074 79.8731 70.0937 79.8658 70.0871 79.8623C70.0838 79.8605 70.0823 79.8597 70.0827 79.8599C70.0829 79.86 70.0836 79.8604 70.0847 79.861C70.0853 79.8613 70.086 79.8617 70.0868 79.8622C70.0872 79.8624 70.0877 79.8626 70.0881 79.8629C70.0884 79.863 70.0887 79.8632 70.0889 79.8633C70.0892 79.8635 70.0896 79.8637 69.2185 81.4204ZM77.1796 75.0035C74.2934 74.6569 71.8539 76.2384 70.3339 77.5611C69.5391 78.2527 68.901 78.9552 68.4627 79.4818C68.2422 79.7467 68.0687 79.9713 67.9478 80.1335C67.8872 80.2148 67.8396 80.2806 67.8055 80.3285C67.7885 80.3524 67.7749 80.3718 67.7647 80.3865C67.7596 80.3938 67.7554 80.3999 67.752 80.4047C67.7504 80.4072 67.7489 80.4093 67.7477 80.4111C67.7471 80.412 67.7465 80.4128 67.746 80.4135C67.7457 80.4139 67.7454 80.4144 67.7453 80.4146C67.7449 80.4151 67.7446 80.4155 69.2185 81.4204C70.6924 82.4252 70.6921 82.4257 70.6918 82.426C70.6918 82.4262 70.6915 82.4265 70.6913 82.4267C70.6911 82.4272 70.6908 82.4275 70.6906 82.4278C70.6902 82.4284 70.6901 82.4286 70.6901 82.4286C70.6902 82.4285 70.691 82.4272 70.6927 82.4248C70.6961 82.4199 70.7027 82.4105 70.7125 82.3968C70.732 82.3693 70.764 82.325 70.8078 82.2663C70.8955 82.1486 71.0297 81.9745 71.2047 81.7642C71.5576 81.3402 72.0628 80.7859 72.6758 80.2525C73.9713 79.1252 75.4061 78.3838 76.7543 78.5457L77.1796 75.0035Z" fill="#1E1513" mask="url(#path-79-outside-1_318_1249)"/>
<path d="M107.855 93.9728C107.855 104.579 99.246 113.187 88.616 113.187C77.9861 113.187 69.3592 104.579 69.3767 93.9728C69.3767 83.3663 77.9861 74.7584 88.616 74.7584C99.246 74.7584 107.855 83.3663 107.855 93.9728Z" fill="#8E5A45"/>
<path d="M89.5115 113.363C89.5115 113.937 89.7561 114.395 90.1726 114.722C90.562 115.028 91.0808 115.206 91.6342 115.319C92.7405 115.545 94.2377 115.556 95.802 115.556C95.9948 115.556 96.187 115.557 96.3779 115.557C97.7184 115.561 98.9927 115.564 99.9588 115.387C100.514 115.286 101.042 115.113 101.439 114.79C101.864 114.444 102.092 113.961 102.092 113.363C102.092 109.948 99.2546 107.191 95.802 107.191C92.3493 107.191 89.5115 109.948 89.5115 113.363Z" fill="#3D1F14" stroke="#1E1513" stroke-width="1.09012" stroke-linecap="round" stroke-linejoin="round"/>
<path d="M103.48 89.7828C103.48 98.6536 93.7991 105.859 89.1078 105.859C84.5923 105.859 74.7355 98.6536 74.7355 89.7828C74.7355 80.9119 79.0577 73.7065 89.1078 73.7065C99.158 73.724 103.48 80.9119 103.48 89.7828Z" fill="#3D1F14" fill-opacity="0.5"/>
<path fill-rule="evenodd" clip-rule="evenodd" d="M98.0158 114.906C98.0158 112.031 96.3643 110.277 96.3643 110.277C96.3643 110.277 97.0319 112.697 96.9089 114.906H98.0158Z" fill="#1E1513" stroke="#1E1513" stroke-width="1.09012" stroke-linejoin="round"/>
<path d="M81.6757 115.556C83.24 115.556 84.7372 115.545 85.8435 115.319C86.3969 115.206 86.9157 115.028 87.3051 114.722C87.7216 114.395 87.9662 113.937 87.9662 113.363C87.9662 109.948 85.1283 107.191 81.6757 107.191C78.2231 107.191 75.3852 109.948 75.3852 113.363C75.3852 113.961 75.6139 114.444 76.039 114.79C76.4354 115.113 76.9635 115.286 77.5188 115.387C78.485 115.564 79.7593 115.561 81.0998 115.557C81.2907 115.557 81.4829 115.556 81.6757 115.556Z" fill="#3D1F14" stroke="#1E1513" stroke-width="1.09012" stroke-linecap="round" stroke-linejoin="round"/>
<path fill-rule="evenodd" clip-rule="evenodd" d="M79.4442 114.906C79.4442 112.031 81.0958 110.277 81.0958 110.277C81.0958 110.277 80.4281 112.697 80.5511 114.906H79.4442Z" fill="#1E1513" stroke="#1E1513" stroke-width="1.09012" stroke-linejoin="round"/>
<path d="M88.1415 71.1295C82.8529 71.2522 79.1983 73.4261 76.9669 76.7746C72.7325 76.2662 69.2185 81.4204 69.2185 81.4204C69.2185 81.4204 72.5393 83.2787 74.8585 81.7184C74.4368 83.4365 74.226 85.2773 74.226 87.2057C74.226 96.0766 84.0828 103.282 88.5984 103.282C93.2896 103.282 102.971 96.0766 102.971 87.2057C102.971 85.2773 102.76 83.4365 102.338 81.7184C104.657 83.2787 107.961 81.4204 107.961 81.4204C107.961 81.4204 104.447 76.2662 100.23 76.7746C97.9281 73.3209 94.133 71.1295 88.5808 71.1295C88.4578 71.1295 88.2997 71.1295 88.1415 71.1295Z" fill="#8E5A45" stroke="#1E1513" stroke-width="1.09012" stroke-linecap="round" stroke-linejoin="round"/>
<path d="M87.9659 83.3661C87.9659 85.5575 86.1913 87.3457 83.9774 87.3457C81.7812 87.3457 79.989 85.5575 79.989 83.3661C79.989 81.1747 81.7636 79.3865 83.9774 79.3865C86.1913 79.404 87.9834 81.1747 87.9659 83.3661Z" fill="white" stroke="#1E1513" stroke-width="0.891913" stroke-miterlimit="1.007" stroke-linecap="round" stroke-linejoin="round"/>
<path d="M97.2428 83.3661C97.2428 85.5575 95.4682 87.3457 93.2544 87.3457C91.0406 87.3457 89.266 85.5575 89.266 83.3661C89.266 81.1747 91.0406 79.3865 93.2544 79.3865C95.4682 79.3865 97.2428 81.1747 97.2428 83.3661Z" fill="white" stroke="#1E1513" stroke-width="0.891913" stroke-miterlimit="1.007" stroke-linecap="round" stroke-linejoin="round"/>
<path d="M94.0139 81.7151C94.0139 82.4515 93.4165 83.0475 92.6786 83.0475C91.9406 83.0475 91.3433 82.4515 91.3433 81.7151C91.3433 80.9788 91.9406 80.3828 92.6786 80.3828C93.4165 80.3828 94.0139 80.9964 94.0139 81.7151Z" fill="#1E1513"/>
<path d="M84.3225 81.7151C84.3225 82.4515 83.7251 83.0475 82.9872 83.0475C82.2492 83.0475 81.6519 82.4515 81.6519 81.7151C81.6519 80.9788 82.2492 80.3828 82.9872 80.3828C83.7251 80.3828 84.3225 80.9964 84.3225 81.7151Z" fill="#1E1513"/>
<path d="M91.5324 96.7248C91.1283 97.4261 90.3903 97.7417 89.8808 97.4612C89.3713 97.1807 89.2834 96.3742 89.6875 95.673C90.0916 94.9717 90.8296 94.6561 91.3391 94.9366C91.8487 95.2171 91.9365 96.0236 91.5324 96.7248Z" fill="#1E1513"/>
<path d="M85.7693 96.7248C86.1734 97.4261 86.9114 97.7417 87.4209 97.4612C87.9304 97.1807 88.0183 96.3742 87.6142 95.673C87.2101 94.9717 86.4721 94.6561 85.9626 94.9366C85.4531 95.2171 85.3652 96.0236 85.7693 96.7248Z" fill="#1E1513"/>
<path d="M87.2462 99.532C87.2462 99.532 87.758 100.25 88.6159 100.25C89.4738 100.25 89.9855 99.532 89.9855 99.532" stroke="#1E1513" stroke-width="1.09012"/>
<path d="M100.414 69.0077L100.416 69.006C101.806 67.8527 102.234 66.7715 102.556 65.9595L102.557 65.9584L102.565 65.9362C102.644 65.7378 102.731 65.5182 102.827 65.3242C102.928 65.1226 103.069 64.8824 103.286 64.6806C103.816 64.1875 104.476 64.1909 105.091 64.363L105.095 64.3642L105.095 64.3642C106.364 64.726 106.977 65.6332 107.387 66.3265C107.454 66.4398 107.512 66.5419 107.566 66.6358C107.598 66.6918 107.629 66.7448 107.658 66.7955C107.65 66.4616 107.629 66.0795 107.606 65.664L107.603 65.6167C107.562 64.8707 107.514 64.0164 107.582 63.3746C107.615 63.0679 107.686 62.6521 107.912 62.3184C108.038 62.1309 108.237 61.9345 108.53 61.8319C108.822 61.7294 109.105 61.7565 109.335 61.829C109.336 61.8292 109.336 61.8295 109.337 61.8297L109.067 62.6799C109.711 62.8805 110.097 63.7169 110.528 64.6523C111.039 65.76 111.614 67.0067 112.757 67.501L100.414 69.0077ZM100.414 69.0077C99.6484 69.6463 97.8562 70.4955 93.951 70.9093L94.045 71.7962M100.414 69.0077L112.501 66.2501C112.487 65.7589 112.421 65.1473 112.349 64.4777C112.334 64.3371 112.318 64.1939 112.303 64.0487C112.253 63.5724 112.206 63.0839 112.186 62.6387C112.167 62.2059 112.17 61.7532 112.245 61.3693C112.306 61.0583 112.487 60.4025 113.153 60.1747C113.785 59.9579 114.361 60.3086 114.701 60.5662C115.463 61.1426 116.236 62.0913 116.874 63.1791C117.518 64.2769 118.063 65.5821 118.322 66.9147C118.579 68.2421 118.565 69.6627 118.006 70.9316C117.433 72.23 116.335 73.266 114.635 73.8647C108.523 76.017 99.549 76.6343 96.5659 76.5446C94.7832 76.4921 93.0997 75.465 92.2841 74.3403C91.8904 73.7974 91.5412 73.0007 91.8498 72.2046C92.1763 71.3625 93.039 71.0048 93.9521 70.9091L94.045 71.7962M94.045 71.7962C90.8648 72.1293 93.6057 75.5655 96.5927 75.6531M94.045 71.7962C98.0159 71.3755 100.019 70.4989 100.985 69.6924L96.5927 75.6531M96.5927 75.6531C99.5093 75.7408 108.365 75.1272 114.339 73.0234C120.312 70.9196 116.71 63.2058 114.163 61.2774L96.5927 75.6531Z" fill="#009F55" stroke="#1E1513" stroke-width="1.78383" stroke-linejoin="round"/>
<path d="M62.9283 61.2774L62.39 60.5662C61.6286 61.1426 60.8548 62.0913 60.2167 63.1791C59.5727 64.2769 59.028 65.5821 58.7693 66.9147C58.5116 68.2421 58.526 69.6627 59.0855 70.9316C59.658 72.23 60.7564 73.266 62.4563 73.8647C68.5681 76.017 77.5421 76.6343 80.5252 76.5446C82.3073 76.4921 83.9949 75.4656 84.8128 74.3414C85.2074 73.799 85.5592 73.0008 85.2481 72.203C84.9198 71.3609 84.0541 71.0046 83.139 70.9091C79.2346 70.4953 77.4426 69.6463 76.6774 69.0077L76.6754 69.006C75.2853 67.8527 74.8568 66.7715 74.535 65.9595L74.5346 65.9584L74.5258 65.9363C74.4472 65.7378 74.3602 65.5182 74.2638 65.3242C74.1636 65.1226 74.0221 64.8824 73.8052 64.6806C73.275 64.1875 72.6155 64.1909 72.0002 64.363L72.0002 64.363L71.996 64.3642C70.7269 64.726 70.1139 65.6332 69.7045 66.3265C69.6376 66.4398 69.579 66.5419 69.5251 66.6358C69.493 66.6918 69.4626 66.7448 69.4331 66.7955C69.4413 66.4616 69.462 66.0795 69.4852 65.664L69.4878 65.6167C69.5296 64.8707 69.5774 64.0164 69.509 63.3746C69.4763 63.0679 69.4048 62.6521 69.1794 62.3184C69.0528 62.1309 68.8539 61.9345 68.5614 61.8319C68.2692 61.7295 67.9861 61.7565 67.7563 61.829C67.0887 62.0379 66.6689 62.5711 66.3911 63.0223C66.1548 63.4061 65.9409 63.8706 65.7457 64.2943C65.7078 64.3768 65.6705 64.4577 65.6339 64.5361C65.2934 65.2667 64.9765 65.8535 64.5898 66.2501C64.6043 65.7589 64.6702 65.1473 64.7424 64.4778C64.7575 64.3371 64.773 64.1939 64.7883 64.0487C64.8384 63.5724 64.8853 63.0839 64.905 62.6387C64.9241 62.2059 64.921 61.7532 64.8462 61.3693C64.7856 61.0583 64.6037 60.4025 63.9386 60.1747C63.3053 59.9578 62.729 60.3091 62.3893 60.5668L62.9283 61.2774ZM62.9283 61.2774C64.3042 60.2336 64.0778 62.3269 63.8567 64.3706C63.6656 66.1372 63.4786 67.8668 64.3339 67.501L80.4984 75.6531C77.5818 75.7408 68.7265 75.1272 62.7526 73.0234C56.7788 70.9196 60.3806 63.2058 62.9283 61.2774Z" fill="#3D1F14" stroke="#1E1513" stroke-width="1.78383" stroke-linejoin="round"/>
<path d="M92.6797 31.4168L85.5693 56.1636C85.0674 57.9117 83.5584 59.0974 81.8574 59.2658C81.3286 59.3163 80.7796 59.2725 80.2339 59.1176L66.6227 55.207C64.3356 54.5468 63.0119 52.1587 63.6687 49.8716L70.7825 25.1215C71.1665 23.7978 72.1231 22.7974 73.3121 22.3157C74.1744 21.9654 75.1545 21.8913 76.1179 22.1709L89.7257 26.0781C92.0162 26.7349 93.3365 29.123 92.6797 31.4168Z" fill="#009F55"/>
<path opacity="0.2" d="M92.6797 31.4168L85.5693 56.1636C85.0674 57.9117 83.5584 59.0974 81.8574 59.2658C81.3286 59.3163 80.7796 59.2725 80.2339 59.1176L66.6227 55.207C64.3356 54.5468 63.0119 52.1587 63.6687 49.8716L70.7825 25.1215C71.1665 23.7978 72.1231 22.7974 73.3121 22.3157C74.1744 21.9654 75.1545 21.8913 76.1179 22.1709L89.7257 26.0781C92.0162 26.7349 93.3365 29.123 92.6797 31.4168Z" fill="black"/>
<path d="M91.4971 31.7098L84.3866 56.4566C84.006 57.7837 83.0427 58.7875 81.8571 59.2658C81.3282 59.3163 80.7792 59.2725 80.2335 59.1176L66.6223 55.207C64.3352 54.5468 63.0115 52.1587 63.6683 49.8716L70.7821 25.1215C71.1661 23.7977 72.1227 22.7974 73.3117 22.3157C73.8405 22.2652 74.3896 22.309 74.9352 22.4639L88.5431 26.3711C90.8302 27.0313 92.1539 29.4194 91.4971 31.7098Z" fill="#009F55"/>
<path opacity="0.5" d="M91.4971 31.7098L84.3866 56.4566C84.006 57.7837 83.0427 58.7875 81.8571 59.2658C81.3282 59.3163 80.7792 59.2725 80.2335 59.1176L66.6223 55.207C64.3352 54.5468 63.0115 52.1587 63.6683 49.8716L70.7821 25.1215C71.1661 23.7977 72.1227 22.7974 73.3117 22.3157C73.8405 22.2652 74.3896 22.309 74.9352 22.4639L88.5431 26.3711C90.8302 27.0313 92.1539 29.4194 91.4971 31.7098Z" fill="#FAFAFA"/>
<path d="M72.3752 33.8071L70.9196 33.3969L65.6817 51.9864L67.1373 52.3965L72.3752 33.8071Z" fill="#FAFAFA"/>
<path d="M69.2222 52.9941L67.7671 52.5731L73.0048 33.9902L74.4565 34.4079L69.2222 52.9941Z" fill="#FAFAFA"/>
<path d="M71.3375 53.6003L69.8824 53.1826L75.1201 34.5964L76.5752 35.0175L71.3375 53.6003Z" fill="#FAFAFA"/>
<path opacity="0.5" d="M85.0504 37.447L83.5947 37.0369L78.3568 55.6263L79.8125 56.0365L85.0504 37.447Z" fill="black"/>
<path d="M84.861 32.1982L84.1368 34.721L83.2745 34.4785C82.4055 34.2326 81.9003 33.3299 82.1428 32.4609L82.6143 30.7869L84.3557 31.2854C84.7465 31.3999 84.9721 31.8075 84.861 32.1982Z" fill="#FAFAFA"/>
<path d="M84.4467 30.9621L82.7053 30.4636L83.2274 28.6178C83.4699 27.7488 84.376 27.2435 85.245 27.486L86.141 27.7387L85.3595 30.4569C85.2484 30.851 84.8408 31.0766 84.4467 30.9621Z" fill="#FAFAFA"/>
<path d="M86.0972 31.7873L87.8487 32.2892L87.3839 33.9363C87.1414 34.8053 86.2387 35.3139 85.3696 35.068L84.4602 34.812L85.1844 32.2926C85.2955 31.9018 85.7031 31.6762 86.0972 31.7873Z" fill="#FAFAFA"/>
<path d="M88.4684 30.0931L87.9396 31.9659L86.1881 31.464C85.7974 31.3495 85.5717 30.9419 85.6829 30.5512L86.4643 27.833L87.3367 28.0789C88.2057 28.3214 88.711 29.2241 88.4684 30.0931Z" fill="#FAFAFA"/>
</svg>
