<svg width="46" height="43" viewBox="0 0 46 43" fill="none" xmlns="http://www.w3.org/2000/svg">
<g id="Group">
<g id="Union">
<mask id="path-1-outside-1_233_497" maskUnits="userSpaceOnUse" x="7.01953" y="7.31641" width="32" height="35" fill="black">
<rect fill="white" x="7.01953" y="7.31641" width="32" height="35"/>
<path fill-rule="evenodd" clip-rule="evenodd" d="M14.6161 13.3938C16.2279 10.9752 18.8675 9.40505 22.6874 9.31641H23.0047C27.015 9.31641 29.7562 10.8992 31.4186 13.3938C34.4644 13.0266 37.0025 16.7494 37.0025 16.7494C37.0025 16.7494 35.5177 17.5848 34.0683 17.3842C35.8612 19.7218 36.9263 22.6452 36.9263 25.8158C36.9263 30.4172 34.6829 34.4978 31.2274 37.0233C31.9351 37.7525 32.3705 38.7378 32.3705 39.8206C32.3705 41.0206 30.7281 41.0166 28.6385 41.0116C28.501 41.0112 28.3616 41.0109 28.2207 41.0109C25.9363 41.0109 24.0708 40.9729 24.0708 39.8206C24.0708 39.7653 24.0719 39.7103 24.0742 39.6555C23.7295 39.6811 23.3812 39.6941 23.03 39.6941C22.7391 39.6941 22.4504 39.6852 22.164 39.6676C22.1659 39.7184 22.1669 39.7694 22.1669 39.8206C22.1669 40.9729 20.3014 41.0109 18.017 41.0109C17.8761 41.0109 17.7367 41.0112 17.5993 41.0116C15.5096 41.0166 13.8672 41.0206 13.8672 39.8206C13.8672 38.7759 14.2725 37.822 14.9366 37.1012C11.4176 34.5822 9.12594 30.4648 9.13364 25.8158C9.13364 22.6432 10.2001 19.7183 11.9949 17.3799C10.5329 17.5963 9.01953 16.7494 9.01953 16.7494C9.01953 16.7494 11.5577 13.0266 14.6161 13.3938Z"/>
</mask>
<path d="M22.6874 9.31641V8.02797C22.6775 8.02797 22.6675 8.02808 22.6575 8.02832L22.6874 9.31641ZM14.6161 13.3938L14.4625 14.6731C14.9449 14.731 15.4189 14.5126 15.6883 14.1083L14.6161 13.3938ZM31.4186 13.3938L30.3465 14.1083C30.616 14.5128 31.0903 14.7312 31.5729 14.673L31.4186 13.3938ZM37.0025 16.7494L37.6343 17.8724C37.9489 17.6954 38.1748 17.3946 38.2571 17.0431C38.3393 16.6917 38.2704 16.3219 38.0671 16.0236L37.0025 16.7494ZM34.0683 17.3842L34.2449 16.1079C33.7273 16.0362 33.2176 16.2844 32.9547 16.7361C32.6918 17.1878 32.7278 17.7536 33.0459 18.1683L34.0683 17.3842ZM31.2274 37.0233L30.4672 35.983C30.1661 36.2031 29.9751 36.5428 29.9436 36.9144C29.9121 37.2859 30.0431 37.6529 30.3028 37.9206L31.2274 37.0233ZM28.6385 41.0116L28.6353 42.3H28.6353L28.6385 41.0116ZM24.0742 39.6555L25.3615 39.7084C25.3766 39.3412 25.2342 38.9851 24.9701 38.7296C24.706 38.474 24.3453 38.3434 23.9789 38.3706L24.0742 39.6555ZM22.164 39.6676L22.2429 38.3816C21.8797 38.3593 21.5239 38.4917 21.2636 38.746C21.0033 39.0004 20.8627 39.3529 20.8765 39.7166L22.164 39.6676ZM17.5993 41.0116L17.6024 42.3H17.6024L17.5993 41.0116ZM14.9366 37.1012L15.8842 37.9742C16.1344 37.7026 16.2561 37.3367 16.2183 36.9693C16.1805 36.6019 15.9869 36.2685 15.6866 36.0535L14.9366 37.1012ZM9.13364 25.8158L10.4221 25.8179V25.8158H9.13364ZM11.9949 17.3799L13.017 18.1644C13.3366 17.748 13.3717 17.1793 13.1056 16.7268C12.8395 16.2743 12.3255 16.0285 11.8063 16.1053L11.9949 17.3799ZM9.01953 16.7494L7.95497 16.0236C7.75136 16.3223 7.68256 16.6927 7.76535 17.0446C7.84814 17.3964 8.07491 17.6973 8.39033 17.8738L9.01953 16.7494ZM22.6575 8.02832C18.4526 8.12589 15.4076 9.88267 13.544 12.6793L15.6883 14.1083C17.0481 12.0678 19.2824 10.6842 22.7173 10.6045L22.6575 8.02832ZM23.0047 8.02797H22.6874V10.6048H23.0047V8.02797ZM32.4908 12.6793C30.5662 9.79138 27.4023 8.02797 23.0047 8.02797V10.6048C26.6277 10.6048 28.9461 12.0071 30.3465 14.1083L32.4908 12.6793ZM37.0025 16.7494C38.0671 16.0236 38.0669 16.0233 38.0667 16.023C38.0666 16.0228 38.0663 16.0225 38.0661 16.0222C38.0658 16.0217 38.0654 16.0211 38.0649 16.0204C38.064 16.0191 38.063 16.0176 38.0618 16.0159C38.0594 16.0123 38.0563 16.0079 38.0526 16.0027C38.0453 15.9921 38.0355 15.9781 38.0232 15.9608C37.9986 15.9263 37.9642 15.8788 37.9205 15.8201C37.8332 15.703 37.708 15.5408 37.5489 15.3495C37.2327 14.9693 36.7724 14.462 36.1993 13.9626C35.1041 13.0081 33.3445 11.8638 31.2644 12.1146L31.5729 14.673C32.5385 14.5566 33.5709 15.0901 34.5062 15.9052C34.9484 16.2906 35.313 16.6911 35.5678 16.9974C35.6942 17.1494 35.7911 17.2752 35.8545 17.3602C35.8862 17.4027 35.9093 17.4347 35.9234 17.4546C35.9305 17.4645 35.9352 17.4713 35.9377 17.4748C35.9389 17.4766 35.9396 17.4775 35.9396 17.4776C35.9396 17.4776 35.9395 17.4775 35.9392 17.4771C35.9391 17.4769 35.9389 17.4766 35.9387 17.4763C35.9386 17.4762 35.9384 17.4759 35.9384 17.4758C35.9382 17.4755 35.938 17.4752 37.0025 16.7494ZM33.8916 18.6604C34.8947 18.7993 35.8447 18.5778 36.4856 18.3646C36.8171 18.2543 37.094 18.1367 37.2907 18.0453C37.3895 17.9994 37.4695 17.9595 37.5275 17.9295C37.5566 17.9145 37.5803 17.9019 37.5982 17.8922C37.6071 17.8874 37.6146 17.8833 37.6207 17.8799C37.6237 17.8783 37.6263 17.8768 37.6286 17.8755C37.6297 17.8749 37.6308 17.8743 37.6317 17.8738C37.6322 17.8735 37.6327 17.8733 37.6331 17.873C37.6333 17.8729 37.6336 17.8727 37.6337 17.8727C37.634 17.8725 37.6343 17.8724 37.0025 16.7494C36.3708 15.6265 36.3711 15.6263 36.3714 15.6262C36.3714 15.6261 36.3717 15.626 36.3719 15.6259C36.3722 15.6257 36.3725 15.6255 36.3728 15.6254C36.3734 15.625 36.3739 15.6248 36.3743 15.6245C36.3752 15.6241 36.3757 15.6238 36.3758 15.6237C36.3762 15.6235 36.3752 15.6241 36.3729 15.6253C36.3683 15.6278 36.3587 15.6329 36.3443 15.6404C36.3155 15.6553 36.2681 15.679 36.2051 15.7083C36.0781 15.7673 35.8931 15.846 35.6722 15.9195C35.2084 16.0738 34.6913 16.1697 34.2449 16.1079L33.8916 18.6604ZM38.2147 25.8158C38.2147 22.3517 37.0499 19.1547 35.0906 16.6L33.0459 18.1683C34.6724 20.289 35.6379 22.9386 35.6379 25.8158H38.2147ZM31.9877 38.0635C35.7606 35.3061 38.2147 30.8461 38.2147 25.8158H35.6379C35.6379 29.9883 33.6053 33.6895 30.4672 35.983L31.9877 38.0635ZM33.659 39.8206C33.659 38.3842 33.0798 37.082 32.1521 36.126L30.3028 37.9206C30.7904 38.4231 31.0821 39.0914 31.0821 39.8206H33.659ZM28.6353 42.3C29.6209 42.3024 30.7226 42.3124 31.566 42.1261C31.9984 42.0306 32.5191 41.8537 32.9441 41.4705C33.4221 41.0394 33.659 40.4569 33.659 39.8206H31.0821C31.0821 39.8215 31.0825 39.7771 31.1109 39.7105C31.1404 39.6415 31.1828 39.5889 31.2184 39.5568C31.2701 39.5102 31.2497 39.557 31.0103 39.6099C30.5101 39.7203 29.7457 39.7258 28.6416 39.7231L28.6353 42.3ZM28.2207 42.2993C28.3598 42.2993 28.4977 42.2997 28.6353 42.3L28.6416 39.7231C28.5044 39.7228 28.3635 39.7225 28.2207 39.7225V42.2993ZM22.7824 39.8206C22.7824 40.5229 23.0956 41.1077 23.6015 41.5055C24.0434 41.853 24.5776 42.0176 25.0313 42.1102C25.9375 42.2953 27.1188 42.2993 28.2207 42.2993V39.7225C27.0382 39.7225 26.1446 39.7075 25.5469 39.5855C25.2487 39.5246 25.1738 39.4637 25.1944 39.4799C25.2792 39.5465 25.3592 39.6944 25.3592 39.8206H22.7824ZM22.7868 39.6027C22.7839 39.675 22.7824 39.7476 22.7824 39.8206H25.3592C25.3592 39.783 25.36 39.7456 25.3615 39.7084L22.7868 39.6027ZM23.03 40.9826C23.4131 40.9826 23.7931 40.9684 24.1695 40.9404L23.9789 38.3706C23.6658 38.3938 23.3494 38.4057 23.03 38.4057V40.9826ZM22.0851 40.9536C22.3977 40.9728 22.7128 40.9826 23.03 40.9826V38.4057C22.7655 38.4057 22.5031 38.3976 22.2429 38.3816L22.0851 40.9536ZM20.8765 39.7166C20.8778 39.7511 20.8785 39.7858 20.8785 39.8206H23.4553C23.4553 39.753 23.4541 39.6856 23.4515 39.6186L20.8765 39.7166ZM20.8785 39.8206C20.8785 39.6944 20.9586 39.5465 21.0433 39.4799C21.064 39.4637 20.989 39.5246 20.6908 39.5855C20.0931 39.7075 19.1995 39.7225 18.017 39.7225V42.2993C19.1189 42.2993 20.3002 42.2953 21.2064 42.1102C21.6601 42.0176 22.1943 41.853 22.6362 41.5055C23.1421 41.1077 23.4553 40.5229 23.4553 39.8206H20.8785ZM18.017 39.7225C17.8743 39.7225 17.7333 39.7228 17.5961 39.7231L17.6024 42.3C17.7401 42.2997 17.8779 42.2993 18.017 42.2993V39.7225ZM17.5961 39.7231C16.492 39.7258 15.7276 39.7203 15.2275 39.6099C14.988 39.557 14.9676 39.5102 15.0193 39.5568C15.0549 39.5889 15.0973 39.6415 15.1268 39.7105C15.1552 39.7771 15.1556 39.8215 15.1556 39.8206H12.5787C12.5787 40.4569 12.8156 41.0394 13.2936 41.4705C13.7186 41.8537 14.2393 42.0306 14.6717 42.1261C15.5152 42.3124 16.6168 42.3024 17.6024 42.3L17.5961 39.7231ZM15.1556 39.8206C15.1556 39.1167 15.4272 38.4702 15.8842 37.9742L13.9891 36.2281C13.1178 37.1737 12.5787 38.435 12.5787 39.8206H15.1556ZM7.8452 25.8136C7.83678 30.8981 10.3448 35.3988 14.1867 38.1489L15.6866 36.0535C12.4904 33.7656 10.4151 30.0316 10.4221 25.8179L7.8452 25.8136ZM10.9729 16.5954C9.01143 19.1508 7.8452 22.3496 7.8452 25.8158H10.4221C10.4221 22.9369 11.3887 20.2858 13.017 18.1644L10.9729 16.5954ZM9.01953 16.7494C8.39033 17.8738 8.39062 17.8739 8.39092 17.8741C8.39103 17.8742 8.39133 17.8743 8.39155 17.8745C8.39198 17.8747 8.39243 17.875 8.39291 17.8752C8.39386 17.8758 8.39491 17.8763 8.39606 17.877C8.39835 17.8782 8.40103 17.8797 8.40408 17.8814C8.41018 17.8847 8.41779 17.8889 8.42685 17.8938C8.44498 17.9035 8.46899 17.9162 8.49847 17.9314C8.55737 17.9616 8.6386 18.0019 8.73897 18.0483C8.93867 18.1404 9.21984 18.259 9.55617 18.3697C10.206 18.5835 11.17 18.8045 12.1836 18.6544L11.8063 16.1053C11.3578 16.1717 10.8342 16.0774 10.3618 15.922C10.137 15.848 9.94844 15.7684 9.8187 15.7085C9.75435 15.6788 9.70593 15.6546 9.67635 15.6394C9.6616 15.6319 9.65167 15.6266 9.64691 15.624C9.64454 15.6227 9.64347 15.6221 9.64376 15.6223C9.6439 15.6224 9.64438 15.6226 9.64521 15.6231C9.64562 15.6233 9.64612 15.6236 9.64671 15.6239C9.647 15.6241 9.64732 15.6243 9.64765 15.6245C9.64782 15.6246 9.64809 15.6247 9.64818 15.6248C9.64845 15.6249 9.64873 15.6251 9.01953 16.7494ZM14.7697 12.1146C12.6851 11.8643 10.9231 13.0066 9.82514 13.9619C9.25106 14.4615 8.79023 14.9688 8.47364 15.3492C8.31436 15.5405 8.18907 15.7028 8.10169 15.82C8.05795 15.8786 8.02354 15.9262 7.99896 15.9608C7.98666 15.978 7.97681 15.9921 7.96946 16.0026C7.96578 16.0079 7.96273 16.0123 7.96032 16.0158C7.95911 16.0176 7.95806 16.0191 7.95717 16.0204C7.95672 16.0211 7.95631 16.0217 7.95595 16.0222C7.95576 16.0225 7.95552 16.0228 7.95543 16.023C7.95519 16.0233 7.95497 16.0236 9.01953 16.7494C10.0841 17.4752 10.0839 17.4755 10.0837 17.4758C10.0836 17.4759 10.0835 17.4762 10.0833 17.4763C10.0831 17.4766 10.083 17.4769 10.0828 17.4771C10.0825 17.4775 10.0824 17.4777 10.0824 17.4776C10.0825 17.4776 10.0831 17.4766 10.0844 17.4749C10.0868 17.4714 10.0916 17.4646 10.0986 17.4547C10.1127 17.4349 10.1358 17.4028 10.1674 17.3604C10.2308 17.2754 10.3277 17.1497 10.4542 16.9978C10.7091 16.6915 11.0739 16.2912 11.5167 15.9059C12.4524 15.0916 13.4888 14.5561 14.4625 14.6731L14.7697 12.1146Z" fill="#1E1513" mask="url(#path-1-outside-1_233_497)"/>
</g>
<path id="Vector" d="M36.9265 25.8158C36.9265 33.4768 30.708 39.6942 23.0301 39.6942C15.3523 39.6942 9.12112 33.4768 9.13381 25.8158C9.13381 18.1549 15.3523 11.9375 23.0301 11.9375C30.708 11.9375 36.9265 18.1549 36.9265 25.8158Z" fill="#8E5A45"/>
<path id="Vector_2" d="M23.6769 39.8216C23.6769 40.2362 23.8536 40.5666 24.1544 40.8031C24.4356 41.0243 24.8104 41.1529 25.2101 41.2346C26.0091 41.3977 27.0906 41.4056 28.2204 41.4056C28.3597 41.4056 28.4985 41.4059 28.6364 41.4063C29.6046 41.4089 30.525 41.4114 31.2229 41.2836C31.624 41.2101 32.0055 41.0855 32.2917 40.8523C32.5988 40.6022 32.764 40.2535 32.764 39.8216C32.764 37.3549 30.7142 35.3631 28.2204 35.3631C25.7266 35.3631 23.6769 37.3549 23.6769 39.8216Z" fill="#3D1F14" stroke="#1E1513" stroke-width="0.787379" stroke-linecap="round" stroke-linejoin="round"/>
<path id="Vector_3" d="M33.7664 22.7894C33.7664 29.1968 26.7738 34.4012 23.3854 34.4012C20.1239 34.4012 13.0044 29.1968 13.0044 22.7894C13.0044 16.3821 16.1263 11.1777 23.3854 11.1777C30.6445 11.1904 33.7664 16.3821 33.7664 22.7894Z" fill="#3D1F14" fill-opacity="0.5"/>
<path id="Vector_4" fill-rule="evenodd" clip-rule="evenodd" d="M29.8196 40.9357C29.8196 38.859 28.6267 37.5928 28.6267 37.5928C28.6267 37.5928 29.109 39.3402 29.0201 40.9357H29.8196Z" fill="#1E1513" stroke="#1E1513" stroke-width="0.787379" stroke-linejoin="round"/>
<path id="Vector_5" d="M18.0173 41.4056C19.1472 41.4056 20.2286 41.3977 21.0276 41.2346C21.4273 41.1529 21.8021 41.0243 22.0833 40.8031C22.3842 40.5666 22.5608 40.2362 22.5608 39.8216C22.5608 37.3549 20.5111 35.3631 18.0173 35.3631C15.5235 35.3631 13.4737 37.3549 13.4737 39.8216C13.4737 40.2535 13.6389 40.6022 13.946 40.8523C14.2323 41.0855 14.6137 41.2101 15.0148 41.2836C15.7127 41.4114 16.6331 41.4089 17.6013 41.4063C17.7392 41.4059 17.878 41.4056 18.0173 41.4056Z" fill="#3D1F14" stroke="#1E1513" stroke-width="0.787379" stroke-linecap="round" stroke-linejoin="round"/>
<path id="Vector_6" fill-rule="evenodd" clip-rule="evenodd" d="M16.4055 40.9357C16.4055 38.859 17.5984 37.5928 17.5984 37.5928C17.5984 37.5928 17.1162 39.3402 17.205 40.9357H16.4055Z" fill="#1E1513" stroke="#1E1513" stroke-width="0.787379" stroke-linejoin="round"/>
<g id="Group 1">
<path id="Vector_7" d="M22.6874 9.31641C18.8675 9.40505 16.2279 10.9752 14.6161 13.3938C11.5577 13.0266 9.01953 16.7494 9.01953 16.7494C9.01953 16.7494 11.4181 18.0917 13.0933 16.9647C12.7887 18.2056 12.6364 19.5352 12.6364 20.9281C12.6364 27.3355 19.7559 32.5398 23.0174 32.5398C26.4058 32.5398 33.3984 27.3355 33.3984 20.9281C33.3984 19.5352 33.2461 18.2056 32.9415 16.9647C34.6167 18.0917 37.0025 16.7494 37.0025 16.7494C37.0025 16.7494 34.4644 13.0266 31.4186 13.3938C29.7562 10.8992 27.015 9.31641 23.0047 9.31641C22.9159 9.31641 22.8016 9.31641 22.6874 9.31641Z" fill="#8E5A45" stroke="#1E1513" stroke-width="0.787379" stroke-linecap="round" stroke-linejoin="round"/>
<path id="Vector_8" d="M22.5607 18.1547C22.5607 19.7376 21.2789 21.0292 19.6799 21.0292C18.0935 21.0292 16.7991 19.7376 16.7991 18.1547C16.7991 16.5719 18.0808 15.2803 19.6799 15.2803C21.2789 15.2929 22.5733 16.5719 22.5607 18.1547Z" fill="white" stroke="#1E1513" stroke-width="0.644219" stroke-miterlimit="1.007" stroke-linecap="round" stroke-linejoin="round"/>
<path id="Vector_9" d="M29.2613 18.1547C29.2613 19.7376 27.9796 21.0292 26.3805 21.0292C24.7815 21.0292 23.4998 19.7376 23.4998 18.1547C23.4998 16.5719 24.7815 15.2803 26.3805 15.2803C27.9796 15.2803 29.2613 16.5719 29.2613 18.1547Z" fill="white" stroke="#1E1513" stroke-width="0.644219" stroke-miterlimit="1.007" stroke-linecap="round" stroke-linejoin="round"/>
<path id="Vector_10" d="M26.6978 18.6616C26.6978 19.1934 26.2663 19.624 25.7333 19.624C25.2003 19.624 24.7688 19.1934 24.7688 18.6616C24.7688 18.1298 25.2003 17.6992 25.7333 17.6992C26.2663 17.6992 26.6978 18.1424 26.6978 18.6616Z" fill="#1E1513"/>
<path id="Vector_11" d="M21.3677 18.6616C21.3677 19.1934 20.9362 19.624 20.4032 19.624C19.8702 19.624 19.4387 19.1934 19.4387 18.6616C19.4387 18.1298 19.8702 17.6992 20.4032 17.6992C20.9362 17.6992 21.3677 18.1424 21.3677 18.6616Z" fill="#1E1513"/>
<path id="Vector_12" d="M25.1366 27.8037C24.8447 28.3102 24.3117 28.5381 23.9437 28.3355C23.5757 28.1329 23.5122 27.5504 23.8041 27.0439C24.096 26.5374 24.629 26.3095 24.997 26.5121C25.3651 26.7147 25.4285 27.2972 25.1366 27.8037Z" fill="#1E1513"/>
<path id="Vector_13" d="M20.974 27.8037C21.2659 28.3102 21.7989 28.5381 22.167 28.3355C22.535 28.1329 22.5984 27.5504 22.3066 27.0439C22.0147 26.5374 21.4817 26.3095 21.1136 26.5121C20.7456 26.7147 20.6821 27.2972 20.974 27.8037Z" fill="#1E1513"/>
<path id="Vector 4" d="M22.0408 29.8311C22.0408 29.8311 22.4104 30.3499 23.0301 30.3499C23.6497 30.3499 24.0194 29.8311 24.0194 29.8311" stroke="#1E1513" stroke-width="0.787379"/>
</g>
<path id="Vector_14" d="M31.553 7.78265L31.5516 7.78384C30.9988 8.24513 29.7044 8.85841 26.8841 9.1573C26.2247 9.22642 25.6017 9.48485 25.3659 10.093C25.143 10.6679 25.3953 11.2434 25.6797 11.6355C26.2687 12.4479 27.4847 13.1898 28.7723 13.2277C30.927 13.2925 37.4088 12.8466 41.8233 11.292C43.0511 10.8596 43.8445 10.1113 44.258 9.17348C44.6621 8.25699 44.6725 7.23091 44.4864 6.27211C44.2995 5.30961 43.9061 4.36687 43.441 3.57396C42.9802 2.78851 42.4215 2.10343 41.8717 1.6871C41.6264 1.50097 41.2101 1.2472 40.7527 1.40386C40.2723 1.56842 40.1409 2.04211 40.0971 2.26672C40.0431 2.54405 40.0409 2.87104 40.0547 3.18365C40.0689 3.50518 40.1027 3.85803 40.139 4.20205C40.15 4.30693 40.1612 4.41038 40.1721 4.51197C40.2242 4.9956 40.2718 5.43729 40.2823 5.7921C40.003 5.50561 39.7741 5.08177 39.5281 4.5541C39.5017 4.49743 39.4748 4.439 39.4474 4.37946C39.3064 4.07342 39.1519 3.73792 38.9812 3.46067C38.7808 3.13512 38.478 2.75048 37.9967 2.59925C37.8304 2.54656 37.6254 2.52665 37.4137 2.60089C37.2024 2.67499 37.0588 2.81686 36.9673 2.95223C36.8045 3.1933 36.7528 3.49363 36.7292 3.71512C36.6798 4.17871 36.7143 4.79577 36.7445 5.33455L36.7464 5.36875C36.7632 5.66885 36.7781 5.94486 36.7841 6.18603C36.7627 6.14938 36.7408 6.11109 36.7176 6.0707C36.6787 6.00288 36.6364 5.92914 36.588 5.84728C36.2923 5.34654 35.8495 4.69124 34.9329 4.42993L34.9329 4.42992L34.9299 4.42906C34.4854 4.30472 34.0091 4.30232 33.6261 4.65845C33.4694 4.80418 33.3673 4.97773 33.2949 5.12331C33.2253 5.26342 33.1624 5.42206 33.1056 5.56541L33.0993 5.58139L33.099 5.58216C32.8666 6.16867 32.5571 6.94964 31.553 7.78265Z" fill="#009F55" stroke="#1E1513" stroke-width="1.28844" stroke-linejoin="round"/>
<path id="Vector_15" d="M4.47623 2.20035L4.08742 1.68669C3.53745 2.10299 2.97857 2.78825 2.51765 3.57396C2.0525 4.36687 1.65908 5.30961 1.47224 6.27211C1.28612 7.23091 1.2965 8.25699 1.7006 9.17348C2.1141 10.1113 2.90749 10.8596 4.13534 11.292C8.54981 12.8466 15.0316 13.2925 17.1863 13.2277C18.4734 13.1898 19.6924 12.4483 20.2831 11.6364C20.5682 11.2446 20.8223 10.6681 20.5976 10.0918C20.3604 9.48365 19.7353 9.22624 19.0744 9.15729C16.2542 8.85839 14.9598 8.24513 14.407 7.78384L14.4056 7.78265C13.4015 6.94964 13.092 6.16868 12.8596 5.58216L12.8593 5.58138L12.853 5.5654C12.7962 5.42206 12.7333 5.26342 12.6637 5.12331C12.5913 4.97773 12.4892 4.80418 12.3325 4.65845C11.9496 4.30232 11.4732 4.30472 11.0287 4.42906L11.0287 4.42905L11.0257 4.42993C10.1091 4.69124 9.66629 5.34654 9.37059 5.84728C9.32225 5.92914 9.27994 6.00288 9.24102 6.0707C9.21785 6.11109 9.19588 6.14938 9.17456 6.18603C9.18048 5.94486 9.19542 5.66885 9.2122 5.36875L9.21411 5.33457C9.24427 4.79578 9.27881 4.17872 9.22941 3.71512C9.2058 3.49363 9.15413 3.1933 8.9913 2.95223C8.89987 2.81686 8.75621 2.67499 8.54492 2.60089C8.33385 2.52686 8.12935 2.54644 7.96333 2.5988C7.48121 2.74971 7.17803 3.13479 6.97739 3.46067C6.80669 3.73792 6.65217 4.07343 6.51123 4.37946C6.4838 4.439 6.45689 4.49743 6.43048 4.5541C6.18451 5.08177 5.9556 5.50561 5.6763 5.7921C5.6868 5.43728 5.7344 4.99558 5.78652 4.51195C5.79747 4.41036 5.80861 4.30692 5.81966 4.20205C5.85589 3.85803 5.88976 3.50518 5.90395 3.18365C5.91774 2.87104 5.9155 2.54405 5.86148 2.26672C5.81773 2.04211 5.68635 1.56842 5.20592 1.40386C4.74851 1.2472 4.33224 1.50097 4.08688 1.6871L4.47623 2.20035ZM4.47623 2.20035C5.47002 1.44646 5.30648 2.95841 5.14682 4.43455C5.0088 5.71056 4.87368 6.95981 5.49149 6.69561L17.1669 12.5838C15.0603 12.6471 8.66417 12.2039 4.34932 10.6844C0.0344827 9.16485 2.63608 3.59325 4.47623 2.20035Z" fill="#3D1F14" stroke="#1E1513" stroke-width="1.28844" stroke-linejoin="round"/>
</g>
</svg>
