<svg width="64" height="6" viewBox="0 0 64 6" fill="none" xmlns="http://www.w3.org/2000/svg">
<g id="The Moose">
<path id="Vector" d="M61.7131 5.192C61.4525 5.192 61.2173 5.14451 61.0074 5.04953C60.7976 4.95455 60.6242 4.80766 60.4872 4.60886C60.3525 4.40786 60.2641 4.14942 60.2222 3.83355C60.2133 3.76508 60.2056 3.6955 60.199 3.62482C60.1946 3.55193 60.1901 3.47682 60.1857 3.39951C60.1835 3.32 60.1813 3.24048 60.1791 3.16096C60.1769 3.07923 60.1758 2.99419 60.1758 2.90583C60.1758 2.50382 60.22 2.17139 60.3083 1.90854C60.3989 1.64347 60.5303 1.43584 60.7026 1.28564C60.8771 1.13323 61.0925 1.0261 61.3487 0.964249C61.6049 0.900193 61.8987 0.868164 62.23 0.868164C62.3979 0.868164 62.5569 0.877 62.7071 0.89467C62.8573 0.910133 62.9888 0.936639 63.1014 0.974189C63.2163 1.01174 63.3057 1.06144 63.3698 1.12329C63.4338 1.18293 63.4659 1.25692 63.4659 1.34528C63.4659 1.44909 63.4372 1.53303 63.3797 1.59709C63.3223 1.65893 63.2505 1.70201 63.1644 1.72631C63.0937 1.74177 63.0042 1.75392 62.896 1.76275C62.79 1.76938 62.6784 1.7749 62.5613 1.77932C62.4443 1.78153 62.3349 1.78374 62.2333 1.78594C62.1229 1.78815 62.0312 1.79809 61.9583 1.81576C61.8876 1.83343 61.8313 1.86105 61.7893 1.8986C61.7474 1.93394 61.7176 1.98143 61.6999 2.04107C61.6822 2.10071 61.6734 2.17139 61.6734 2.25312C61.6734 2.30613 61.6811 2.35031 61.6966 2.38565C61.7142 2.42099 61.7485 2.44639 61.7993 2.46185C61.8501 2.47732 61.9263 2.48505 62.0279 2.48505C62.0787 2.48505 62.1306 2.48505 62.1836 2.48505C62.2366 2.48284 62.2897 2.48063 62.3427 2.47842C62.3979 2.474 62.4509 2.47069 62.5017 2.46848C62.5547 2.46627 62.6044 2.46517 62.6508 2.46517C62.8121 2.46517 62.9313 2.50161 63.0086 2.57451C63.0859 2.64519 63.1246 2.74459 63.1246 2.8727C63.1246 3.06708 63.0727 3.20182 62.9689 3.27692C62.8673 3.35202 62.7436 3.38957 62.5978 3.38957C62.5426 3.38957 62.4873 3.38957 62.4321 3.38957C62.3769 3.38957 62.3228 3.38957 62.2698 3.38957C62.2168 3.38737 62.166 3.38626 62.1174 3.38626C62.0688 3.38626 62.0257 3.38626 61.9881 3.38626C61.8755 3.38626 61.7894 3.39289 61.7297 3.40614C61.6701 3.41939 61.6292 3.44148 61.6071 3.47241C61.5872 3.50112 61.5773 3.54199 61.5773 3.595C61.5773 3.66347 61.5828 3.72642 61.5939 3.78385C61.6049 3.83908 61.6237 3.88657 61.6502 3.92633C61.6767 3.96609 61.712 4.00032 61.7562 4.02904C61.8026 4.05554 61.8589 4.07542 61.9252 4.08868C61.9937 4.10193 62.0765 4.10856 62.1737 4.10856C62.2753 4.10856 62.3791 4.10745 62.4851 4.10524C62.5912 4.10083 62.6906 4.09751 62.7833 4.0953C62.8761 4.09089 62.9523 4.08868 63.012 4.08868C63.1599 4.08868 63.2704 4.12512 63.3433 4.19802C63.4162 4.27091 63.4526 4.37472 63.4526 4.50946C63.4526 4.65083 63.3974 4.7668 63.287 4.85736C63.1787 4.94792 63.0363 5.0175 62.8595 5.0661C62.685 5.11469 62.4962 5.14782 62.293 5.16549C62.0898 5.18317 61.8965 5.192 61.7131 5.192Z" fill="#3D1F14"/>
<path id="Vector_2" d="M54.7288 5.18904C54.5278 5.18904 54.329 5.17689 54.1324 5.15259C53.938 5.1305 53.7602 5.09295 53.599 5.03994C53.4377 4.98693 53.3085 4.91514 53.2113 4.82458C53.1163 4.73401 53.0688 4.62136 53.0688 4.48662C53.0688 4.34967 53.0998 4.24365 53.1616 4.16855C53.2235 4.09124 53.3063 4.03822 53.4101 4.00951C53.5139 3.97858 53.6266 3.96312 53.7481 3.96312C53.7768 3.96312 53.8188 3.96975 53.874 3.983C53.9314 3.99625 53.9966 4.01061 54.0695 4.02607C54.1424 4.04154 54.2186 4.04927 54.2981 4.04927C54.4129 4.04927 54.5145 4.04485 54.6029 4.03601C54.6912 4.02718 54.7664 4.01172 54.8282 3.98963C54.89 3.96533 54.9364 3.93109 54.9674 3.88692C55.0005 3.84274 55.0171 3.78641 55.0171 3.71794C55.0171 3.66051 54.9994 3.6097 54.964 3.56553C54.9309 3.52135 54.8834 3.48049 54.8216 3.44294C54.7597 3.40318 54.6868 3.36673 54.6029 3.3336C54.5212 3.30046 54.4306 3.26512 54.3312 3.22757C54.181 3.17456 54.0385 3.11271 53.9038 3.04203C53.7713 2.97134 53.6542 2.89072 53.5526 2.80016C53.451 2.7096 53.3704 2.60688 53.3107 2.49202C53.2533 2.37495 53.2246 2.24574 53.2246 2.10437C53.2246 1.92766 53.2676 1.77194 53.3538 1.6372C53.4421 1.50246 53.5603 1.38759 53.7083 1.29261C53.8563 1.19763 54.0231 1.12143 54.2086 1.064C54.3942 1.00436 54.5852 0.961285 54.7818 0.934779C54.9784 0.908273 55.1673 0.89502 55.3484 0.89502C55.5185 0.89502 55.6808 0.904959 55.8354 0.924839C55.9923 0.944719 56.1336 0.977852 56.2595 1.02424C56.3854 1.06841 56.4848 1.12695 56.5577 1.19984C56.6306 1.27053 56.6671 1.35778 56.6671 1.46159C56.6671 1.58087 56.6384 1.67806 56.5809 1.75316C56.5257 1.82605 56.4528 1.88017 56.3623 1.91551C56.2717 1.95085 56.1756 1.96852 56.074 1.96852C56.0276 1.96852 55.9801 1.96079 55.9315 1.94533C55.8829 1.92987 55.8277 1.91441 55.7659 1.89894C55.7062 1.88348 55.6311 1.87575 55.5406 1.87575C55.4787 1.87575 55.418 1.88017 55.3583 1.88901C55.3009 1.89784 55.249 1.9122 55.2026 1.93208C55.1562 1.95196 55.1187 1.98067 55.0899 2.01822C55.0634 2.05357 55.0502 2.09885 55.0502 2.15407C55.0502 2.21371 55.0679 2.26782 55.1032 2.31642C55.1385 2.36501 55.1871 2.40919 55.249 2.44895C55.3108 2.48871 55.3837 2.52736 55.4677 2.56492C55.5538 2.60026 55.6477 2.63781 55.7493 2.67757C55.8885 2.73058 56.0265 2.79574 56.1635 2.87305C56.3026 2.95036 56.4285 3.04092 56.5412 3.14474C56.6538 3.24635 56.7433 3.36342 56.8095 3.49595C56.878 3.62848 56.9123 3.77647 56.9123 3.93993C56.9123 4.16302 56.8526 4.35409 56.7333 4.51313C56.6141 4.67216 56.4517 4.80138 56.2463 4.90078C56.0409 5.00018 55.8078 5.07307 55.5472 5.11946C55.2865 5.16584 55.0137 5.18904 54.7288 5.18904Z" fill="#3D1F14"/>
<path id="Subtract" fill-rule="evenodd" clip-rule="evenodd" d="M46.3237 5.24516C46.5954 5.33351 46.8903 5.37769 47.2084 5.37769C47.5839 5.37769 47.9417 5.32578 48.2819 5.22196C48.622 5.12036 48.9246 4.97236 49.1897 4.77798C49.457 4.58139 49.6668 4.34394 49.8192 4.06563C49.9716 3.7851 50.0478 3.46924 50.0478 3.11803C50.0478 2.79995 49.9838 2.51501 49.8557 2.2632C49.7298 2.01139 49.5542 1.79713 49.3289 1.62042C49.1036 1.44151 48.8429 1.30566 48.5469 1.21289C48.2531 1.12012 47.9373 1.07373 47.5993 1.07373C47.3232 1.07373 47.0559 1.10576 46.7975 1.16982C46.5391 1.23166 46.2994 1.32554 46.0785 1.45145C45.8599 1.57735 45.6677 1.73307 45.502 1.91862C45.3363 2.10416 45.2071 2.32063 45.1144 2.56802C45.0238 2.81321 44.9785 3.08821 44.9785 3.39303C44.9785 3.70669 45.0337 3.98611 45.1442 4.23129C45.2568 4.47647 45.4137 4.68521 45.6147 4.8575C45.8157 5.02758 46.052 5.1568 46.3237 5.24516ZM46.8406 4.10954C47.0813 4.10954 47.2735 4.07088 47.4171 3.99357C47.5629 3.91406 47.6689 3.81134 47.7352 3.68544C47.8014 3.55953 47.8346 3.42811 47.8346 3.29116C47.8346 3.16084 47.8114 3.04266 47.765 2.93664C47.7186 2.8284 47.6545 2.73673 47.5728 2.66163C47.4911 2.58432 47.395 2.52468 47.2845 2.48272C47.1763 2.44075 47.0592 2.41976 46.9333 2.41976C46.8141 2.41976 46.6992 2.43854 46.5888 2.47609C46.4783 2.51143 46.38 2.56334 46.2939 2.63181C46.2077 2.69808 46.1393 2.77981 46.0885 2.877C46.0376 2.97198 46.0122 3.078 46.0122 3.19507C46.0122 3.32319 46.0321 3.44246 46.0719 3.55291C46.1139 3.66335 46.1713 3.76054 46.2442 3.84448C46.3193 3.9262 46.4076 3.99136 46.5092 4.03996C46.6108 4.08635 46.7213 4.10954 46.8406 4.10954Z" fill="#3D1F14"/>
<path id="Subtract_2" fill-rule="evenodd" clip-rule="evenodd" d="M38.092 5.24516C38.3637 5.33351 38.6586 5.37769 38.9767 5.37769C39.3522 5.37769 39.71 5.32578 40.0502 5.22196C40.3903 5.12036 40.6929 4.97236 40.958 4.77798C41.2253 4.58139 41.4351 4.34394 41.5875 4.06563C41.7399 3.7851 41.8162 3.46924 41.8162 3.11803C41.8162 2.79995 41.7521 2.51501 41.624 2.2632C41.4981 2.01139 41.3225 1.79713 41.0972 1.62042C40.8719 1.44151 40.6112 1.30566 40.3152 1.21289C40.0215 1.12012 39.7056 1.07373 39.3676 1.07373C39.0915 1.07373 38.8243 1.10576 38.5658 1.16982C38.3074 1.23166 38.0677 1.32554 37.8468 1.45145C37.6282 1.57735 37.436 1.73307 37.2703 1.91862C37.1047 2.10416 36.9754 2.32063 36.8827 2.56802C36.7921 2.81321 36.7468 3.08821 36.7468 3.39303C36.7468 3.70669 36.802 3.98611 36.9125 4.23129C37.0251 4.47647 37.182 4.68521 37.383 4.8575C37.584 5.02758 37.8203 5.1568 38.092 5.24516ZM39.648 4.0318C39.8888 4.0318 40.081 3.99314 40.2245 3.91583C40.3703 3.83631 40.4764 3.7336 40.5426 3.6077C40.6089 3.48179 40.642 3.35036 40.642 3.21342C40.642 3.08309 40.6188 2.96492 40.5724 2.85889C40.5261 2.75066 40.462 2.65899 40.3803 2.58389C40.2985 2.50658 40.2025 2.44694 40.092 2.40497C39.9838 2.36301 39.8667 2.34202 39.7408 2.34202C39.6215 2.34202 39.5067 2.3608 39.3962 2.39835C39.2858 2.43369 39.1875 2.4856 39.1013 2.55407C39.0152 2.62034 38.9467 2.70207 38.8959 2.79926C38.8451 2.89424 38.8197 3.00026 38.8197 3.11733C38.8197 3.24544 38.8396 3.36472 38.8793 3.47517C38.9213 3.58561 38.9787 3.6828 39.0516 3.76673C39.1267 3.84846 39.2151 3.91362 39.3167 3.96222C39.4183 4.0086 39.5288 4.0318 39.648 4.0318Z" fill="#3D1F14"/>
<path id="Vector_3" d="M28.6208 5.18559C28.4353 5.18559 28.2961 5.14362 28.2034 5.05968C28.1106 4.97795 28.0289 4.85315 27.9582 4.68528C27.9228 4.59251 27.893 4.49311 27.8687 4.38709C27.8444 4.28106 27.8245 4.16951 27.8091 4.05244C27.7936 3.93317 27.7815 3.81278 27.7726 3.6913C27.766 3.5676 27.7627 3.4428 27.7627 3.31689C27.7627 3.18657 27.7682 3.05073 27.7793 2.90936C27.7925 2.76799 27.8102 2.62884 27.8323 2.49189C27.8566 2.35494 27.8842 2.22793 27.9151 2.11086C27.946 1.99379 27.9814 1.8955 28.0211 1.81598C28.1117 1.63264 28.2232 1.49127 28.3558 1.39188C28.4905 1.29027 28.6363 1.21959 28.7931 1.17983C28.9522 1.14007 29.1123 1.12019 29.2736 1.12019C29.4282 1.12019 29.5695 1.14228 29.6977 1.18645C29.8258 1.23063 29.9329 1.29469 30.019 1.37862C30.0654 1.42501 30.1096 1.48244 30.1516 1.55091C30.1935 1.61939 30.2333 1.69339 30.2709 1.7729C30.3106 1.85242 30.346 1.93636 30.3769 2.02471C30.4078 2.11307 30.4365 2.20253 30.463 2.29309C30.4873 2.38586 30.5149 2.46759 30.5459 2.53827C30.579 2.60896 30.6243 2.6443 30.6817 2.6443C30.748 2.6443 30.7988 2.60896 30.8341 2.53827C30.8695 2.46759 30.8993 2.38586 30.9236 2.29309C30.9457 2.20694 30.97 2.1219 30.9965 2.03797C31.023 1.95403 31.0517 1.87341 31.0826 1.7961C31.1135 1.71658 31.1467 1.64369 31.182 1.57742C31.2173 1.50895 31.2549 1.4471 31.2947 1.39188C31.3786 1.2969 31.4791 1.22621 31.5962 1.17983C31.7132 1.13123 31.8723 1.10693 32.0733 1.10693C32.2434 1.10693 32.3969 1.13234 32.5338 1.18314C32.6708 1.23173 32.7923 1.30242 32.8983 1.39519C33.0065 1.48796 33.0993 1.59951 33.1766 1.72983C33.2517 1.84911 33.3147 1.98937 33.3655 2.15062C33.4185 2.30966 33.4582 2.48084 33.4847 2.66418C33.5112 2.84751 33.5256 3.03747 33.5278 3.23406C33.5278 3.34892 33.5267 3.46489 33.5245 3.58196C33.5223 3.69903 33.5168 3.81499 33.5079 3.92985C33.4991 4.04471 33.4858 4.15626 33.4682 4.26449C33.4505 4.37273 33.4273 4.47654 33.3986 4.57594C33.339 4.75044 33.2484 4.87745 33.1269 4.95697C33.0076 5.03649 32.8464 5.07625 32.6432 5.07625C32.5195 5.07625 32.4223 5.05195 32.3516 5.00336C32.2831 4.95255 32.2345 4.8896 32.2058 4.8145C32.197 4.77253 32.1881 4.72504 32.1793 4.67203C32.1705 4.61902 32.1605 4.56379 32.1495 4.50636C32.1406 4.44893 32.1318 4.3915 32.123 4.33407C32.1164 4.27443 32.1097 4.217 32.1031 4.16178C32.0965 4.0668 32.0865 3.97072 32.0733 3.87353C32.06 3.77634 32.0457 3.68798 32.0302 3.60846C32.017 3.52674 32.0037 3.46157 31.9904 3.41298C31.9639 3.32021 31.9308 3.24732 31.891 3.1943C31.8513 3.14129 31.7961 3.11478 31.7254 3.11478C31.6525 3.11478 31.5917 3.14681 31.5432 3.21087C31.4946 3.27493 31.457 3.35997 31.4305 3.46599C31.4239 3.49692 31.4139 3.53668 31.4007 3.58527C31.3896 3.63387 31.3775 3.68688 31.3642 3.74431C31.3532 3.79953 31.3399 3.85806 31.3245 3.91991C31.3112 3.98176 31.2969 4.0425 31.2814 4.10214C31.2659 4.16178 31.2516 4.21811 31.2383 4.27112C31.1919 4.40807 31.1235 4.51299 31.0329 4.58588C30.9446 4.65878 30.8186 4.69522 30.6552 4.69522C30.4741 4.69522 30.3415 4.65436 30.2576 4.57263C30.1759 4.4909 30.0975 4.37273 30.0224 4.21811C30.0091 4.18056 29.9936 4.13307 29.976 4.07564C29.9583 4.016 29.9395 3.95084 29.9196 3.88015C29.902 3.80947 29.8821 3.73768 29.86 3.66479C29.8401 3.5919 29.8213 3.52232 29.8037 3.45605C29.786 3.38758 29.7683 3.32683 29.7507 3.27382C29.7242 3.17884 29.6943 3.11037 29.6612 3.0684C29.6281 3.02422 29.5828 3.00213 29.5254 3.00213C29.4569 3.00213 29.4061 3.03527 29.373 3.10153C29.3398 3.1678 29.3144 3.26609 29.2967 3.39641C29.2901 3.43617 29.2835 3.48256 29.2769 3.53557C29.2724 3.58638 29.2691 3.64381 29.2669 3.70786C29.2647 3.77192 29.2625 3.8415 29.2603 3.9166C29.2581 3.98949 29.257 4.06791 29.257 4.15184C29.257 4.2402 29.2559 4.32082 29.2537 4.39371C29.2515 4.4666 29.2459 4.53508 29.2371 4.59914C29.2305 4.66098 29.2205 4.71731 29.2073 4.76811C29.1962 4.81671 29.1808 4.86199 29.1609 4.90396C29.1101 4.99452 29.0383 5.0641 28.9455 5.1127C28.855 5.16129 28.7467 5.18559 28.6208 5.18559Z" fill="#3D1F14"/>
<path id="Vector_4" d="M17.6538 5.192C17.3932 5.192 17.1579 5.14451 16.9481 5.04953C16.7382 4.95455 16.5649 4.80766 16.4279 4.60886C16.2932 4.40786 16.2048 4.14942 16.1628 3.83355C16.154 3.76508 16.1463 3.6955 16.1396 3.62482C16.1352 3.55193 16.1308 3.47682 16.1264 3.39951C16.1242 3.32 16.122 3.24048 16.1198 3.16096C16.1176 3.07923 16.1165 2.99419 16.1165 2.90583C16.1165 2.50382 16.1606 2.17139 16.249 1.90854C16.3395 1.64347 16.471 1.43584 16.6433 1.28564C16.8178 1.13323 17.0331 1.0261 17.2894 0.964249C17.5456 0.900193 17.8394 0.868164 18.1707 0.868164C18.3386 0.868164 18.4976 0.877 18.6478 0.89467C18.798 0.910133 18.9294 0.936639 19.0421 0.974189C19.1569 1.01174 19.2464 1.06144 19.3105 1.12329C19.3745 1.18293 19.4065 1.25692 19.4065 1.34528C19.4065 1.44909 19.3778 1.53303 19.3204 1.59709C19.263 1.65893 19.1912 1.70201 19.105 1.72631C19.0344 1.74177 18.9449 1.75392 18.8367 1.76275C18.7306 1.76938 18.6191 1.7749 18.502 1.77932C18.385 1.78153 18.2756 1.78374 18.174 1.78594C18.0636 1.78815 17.9719 1.79809 17.899 1.81576C17.8283 1.83343 17.772 1.86105 17.73 1.8986C17.6881 1.93394 17.6582 1.98143 17.6406 2.04107C17.6229 2.10071 17.6141 2.17139 17.6141 2.25312C17.6141 2.30613 17.6218 2.35031 17.6373 2.38565C17.6549 2.42099 17.6892 2.44639 17.74 2.46185C17.7908 2.47732 17.867 2.48505 17.9686 2.48505C18.0194 2.48505 18.0713 2.48505 18.1243 2.48505C18.1773 2.48284 18.2303 2.48063 18.2833 2.47842C18.3386 2.474 18.3916 2.47069 18.4424 2.46848C18.4954 2.46627 18.5451 2.46517 18.5915 2.46517C18.7527 2.46517 18.872 2.50161 18.9493 2.57451C19.0266 2.64519 19.0653 2.74459 19.0653 2.8727C19.0653 3.06708 19.0134 3.20182 18.9096 3.27692C18.8079 3.35202 18.6843 3.38957 18.5385 3.38957C18.4832 3.38957 18.428 3.38957 18.3728 3.38957C18.3176 3.38957 18.2635 3.38957 18.2105 3.38957C18.1574 3.38737 18.1066 3.38626 18.058 3.38626C18.0094 3.38626 17.9664 3.38626 17.9288 3.38626C17.8162 3.38626 17.73 3.39289 17.6704 3.40614C17.6107 3.41939 17.5699 3.44148 17.5478 3.47241C17.5279 3.50112 17.518 3.54199 17.518 3.595C17.518 3.66347 17.5235 3.72642 17.5345 3.78385C17.5456 3.83908 17.5644 3.88657 17.5909 3.92633C17.6174 3.96609 17.6527 4.00032 17.6969 4.02904C17.7433 4.05554 17.7996 4.07542 17.8659 4.08868C17.9343 4.10193 18.0172 4.10856 18.1144 4.10856C18.216 4.10856 18.3198 4.10745 18.4258 4.10524C18.5318 4.10083 18.6312 4.09751 18.724 4.0953C18.8168 4.09089 18.893 4.08868 18.9526 4.08868C19.1006 4.08868 19.2111 4.12512 19.284 4.19802C19.3568 4.27091 19.3933 4.37472 19.3933 4.50946C19.3933 4.65083 19.3381 4.7668 19.2276 4.85736C19.1194 4.94792 18.9769 5.0175 18.8002 5.0661C18.6257 5.11469 18.4369 5.14782 18.2336 5.16549C18.0304 5.18317 17.8372 5.192 17.6538 5.192Z" fill="#3D1F14"/>
<path id="Vector_5" d="M11.8225 5.14244C11.6546 5.14244 11.5343 5.11925 11.4614 5.07286C11.3885 5.02648 11.3377 4.95137 11.309 4.84756C11.3023 4.80117 11.2968 4.75147 11.2924 4.69846C11.288 4.64545 11.2847 4.59133 11.2825 4.53611C11.2825 4.48089 11.2814 4.42677 11.2791 4.37376C11.2769 4.32075 11.2747 4.27105 11.2725 4.22466C11.2725 4.17607 11.2725 4.13299 11.2725 4.09544C11.2681 3.98721 11.2571 3.89996 11.2394 3.83369C11.2217 3.76743 11.1897 3.71994 11.1433 3.69122C11.0903 3.65588 11.0218 3.63048 10.9379 3.61502C10.8539 3.59955 10.7247 3.59182 10.5502 3.59182C10.4574 3.59182 10.3801 3.59403 10.3183 3.59845C10.2564 3.60066 10.2045 3.60618 10.1626 3.61502C10.1206 3.62164 10.0842 3.63048 10.0532 3.64152C10.0245 3.65257 9.99801 3.66472 9.97371 3.67797C9.94499 3.69343 9.91738 3.71552 9.89088 3.74423C9.86437 3.77074 9.84339 3.80719 9.82793 3.85357C9.81688 3.88008 9.80694 3.911 9.79811 3.94634C9.78927 3.98169 9.78044 4.02034 9.7716 4.06231C9.76497 4.10207 9.75835 4.14735 9.75172 4.19815C9.74509 4.24896 9.73847 4.30418 9.73184 4.36382C9.72521 4.42346 9.71859 4.48862 9.71196 4.5593C9.69208 4.69404 9.65674 4.80007 9.60593 4.87738C9.55734 4.95469 9.48887 5.0088 9.40051 5.03973C9.31216 5.07286 9.20171 5.08943 9.06918 5.08943C8.87039 5.08943 8.71356 5.032 8.5987 4.91714C8.48604 4.80007 8.401 4.65097 8.34357 4.46984C8.31928 4.38591 8.29829 4.29314 8.28062 4.19153C8.26516 4.08771 8.25191 3.97948 8.24086 3.86683C8.23203 3.75197 8.2254 3.63821 8.22098 3.52556C8.21656 3.41291 8.21436 3.30467 8.21436 3.20086C8.21436 3.06612 8.21656 2.93469 8.22098 2.80657C8.22761 2.67846 8.23534 2.55476 8.24417 2.43549C8.25522 2.31621 8.26847 2.20135 8.28393 2.09091C8.30161 1.98046 8.32259 1.87665 8.34689 1.77946C8.39106 1.60496 8.44849 1.45365 8.51918 1.32554C8.59207 1.19742 8.68263 1.09913 8.79087 1.03065C8.8991 0.959971 9.02721 0.924629 9.17521 0.924629C9.34529 0.924629 9.4734 0.959971 9.55955 1.03065C9.6479 1.09913 9.71196 1.20515 9.75172 1.34873C9.75835 1.3907 9.76608 1.43487 9.77491 1.48126C9.78375 1.52765 9.79258 1.57514 9.80142 1.62373C9.81025 1.67233 9.81799 1.71982 9.82461 1.7662C9.83124 1.81038 9.83786 1.85124 9.84449 1.88879C9.85333 1.92414 9.86106 1.95396 9.86768 1.97825C9.88756 2.05777 9.90965 2.12625 9.93395 2.18368C9.95825 2.24111 9.99359 2.28418 10.04 2.3129C10.0952 2.34382 10.167 2.36591 10.2553 2.37916C10.3437 2.39241 10.4398 2.39904 10.5436 2.39904C10.6386 2.39904 10.7236 2.39794 10.7987 2.39573C10.876 2.39352 10.9423 2.38689 10.9975 2.37585C11.0527 2.36259 11.0991 2.34382 11.1367 2.31952C11.1764 2.29081 11.2096 2.24773 11.2361 2.1903C11.2648 2.13287 11.2858 2.04452 11.299 1.92524C11.3056 1.87002 11.3123 1.81259 11.3189 1.75295C11.3255 1.69331 11.3333 1.63257 11.3421 1.57072C11.3531 1.50887 11.3653 1.44702 11.3785 1.38518C11.3918 1.32112 11.4095 1.25706 11.4316 1.193C11.4713 1.07814 11.5321 0.990894 11.6138 0.931255C11.6977 0.871616 11.8026 0.841797 11.9285 0.841797C12.1185 0.841797 12.2665 0.890392 12.3725 0.987581C12.4808 1.08477 12.5625 1.22724 12.6177 1.415C12.642 1.4923 12.663 1.58176 12.6807 1.68337C12.7005 1.78277 12.716 1.89321 12.727 2.0147C12.7403 2.13619 12.7502 2.2643 12.7569 2.39904C12.7635 2.53378 12.7668 2.67183 12.7668 2.8132C12.7668 2.93469 12.7635 3.05838 12.7569 3.18429C12.7525 3.30799 12.7447 3.43058 12.7337 3.55206C12.7226 3.67134 12.7094 3.7862 12.6939 3.89665C12.6807 4.00709 12.6641 4.11201 12.6442 4.21141C12.6265 4.3086 12.6067 4.39806 12.5846 4.47978C12.5249 4.69404 12.43 4.8586 12.2996 4.97346C12.1715 5.08611 12.0125 5.14244 11.8225 5.14244Z" fill="#3D1F14"/>
<path id="Vector_6" d="M2.64802 5.2054C2.4448 5.2054 2.29018 5.1568 2.18416 5.05961C2.08034 4.96242 2.01629 4.81885 1.99199 4.62888C1.98536 4.56704 1.97874 4.49193 1.97211 4.40358C1.96769 4.31523 1.96327 4.22025 1.95886 4.11864C1.95665 4.01482 1.95444 3.90659 1.95223 3.79394C1.95002 3.67908 1.94781 3.56422 1.9456 3.44935C1.9456 3.33229 1.9456 3.21742 1.9456 3.10477C1.9456 2.99212 1.9456 2.88499 1.9456 2.78338C1.9456 2.61993 1.92904 2.50507 1.8959 2.4388C1.86498 2.37033 1.79098 2.33609 1.67391 2.33609C1.55464 2.33609 1.43646 2.34493 1.31939 2.3626C1.20232 2.38027 1.08194 2.3891 0.958244 2.3891C0.858845 2.3891 0.770491 2.36701 0.693181 2.32284C0.615871 2.27866 0.555128 2.21571 0.51095 2.13398C0.468982 2.05004 0.447998 1.95175 0.447998 1.8391C0.447998 1.70878 0.498802 1.59723 0.600409 1.50446C0.702017 1.40948 0.84007 1.33106 1.01457 1.26921C1.18907 1.20737 1.38566 1.15877 1.60433 1.12343C1.82301 1.08809 2.05052 1.06379 2.28687 1.05054C2.52322 1.03507 2.75184 1.02734 2.97272 1.02734C3.17373 1.02734 3.37363 1.03066 3.57243 1.03728C3.77122 1.04391 3.95898 1.06048 4.13568 1.08698C4.3146 1.11349 4.47253 1.15546 4.60948 1.21289C4.74864 1.26811 4.85798 1.34321 4.9375 1.43819C5.01702 1.53317 5.05678 1.65466 5.05678 1.80265C5.05678 1.93518 5.03469 2.04784 4.99051 2.14061C4.94854 2.23117 4.88449 2.30075 4.79834 2.34934C4.7144 2.39794 4.61059 2.42224 4.48689 2.42224C4.36099 2.42224 4.26822 2.42113 4.20858 2.41892C4.15115 2.41451 4.07936 2.4123 3.99321 2.4123C3.87393 2.4123 3.78558 2.42776 3.72815 2.45868C3.67072 2.4874 3.63206 2.53931 3.61219 2.61441C3.59451 2.68951 3.58126 2.79553 3.57243 2.93248C3.56801 3.01421 3.56249 3.09925 3.55586 3.18761C3.54923 3.27375 3.5415 3.36321 3.53267 3.45598C3.52383 3.54654 3.51279 3.63821 3.49953 3.73098C3.48628 3.82376 3.47303 3.91432 3.45977 4.00267C3.44652 4.09103 3.43216 4.17607 3.4167 4.2578C3.40124 4.33952 3.38357 4.41683 3.36369 4.48973C3.34602 4.56041 3.32835 4.62447 3.31068 4.6819C3.25545 4.8078 3.20134 4.90941 3.14833 4.98672C3.09531 5.06403 3.03015 5.11925 2.95284 5.15238C2.87553 5.18772 2.77392 5.2054 2.64802 5.2054Z" fill="#3D1F14"/>
</g>
</svg>
